# WaveFront *.obj file (generated by Autodesk ATF)

mtllib Base - Top.mtl

g Sólido2

v -150.000000 0.000000 -225.000000
v -150.000000 0.000000 225.000000
v -150.000000 5.000000 89.572592
v -150.000000 5.000000 225.000000
v -150.000000 20.000000 -205.000000
v -150.000000 20.000000 80.912342
v -150.000000 335.000000 -205.000000
v -150.000000 335.000000 -100.952997
v -150.000000 355.000000 -225.000000
v -150.000000 355.000000 -112.500000
v -44.499998 0.000000 -77.087660
v -44.499998 0.000000 -19.087660
v -44.409537 20.000000 -77.600689
v -44.409537 20.000000 -76.574631
v -44.409537 20.000000 -19.600691
v -44.409537 20.000000 -18.574630
v -44.149065 0.000000 -78.051839
v -44.149065 0.000000 -76.123476
v -44.149065 0.000000 -20.051842
v -44.149065 0.000000 -18.123479
v -43.750000 20.000000 -78.386698
v -43.750000 20.000000 -75.788622
v -43.750000 20.000000 -20.386698
v -43.750000 20.000000 -17.788621
v -43.260474 0.000000 -78.564873
v -43.260474 0.000000 -75.610447
v -43.260474 0.000000 -20.564871
v -43.260474 0.000000 -17.610449
v -42.739530 20.000000 -78.564873
v -42.739530 20.000000 -75.610447
v -42.739530 20.000000 -20.564871
v -42.739530 20.000000 -17.610449
v -42.249999 0.000000 -78.386698
v -42.249999 0.000000 -75.788622
v -42.249999 0.000000 -20.386698
v -42.249999 0.000000 -17.788621
v -41.850934 20.000000 -78.051839
v -41.850934 20.000000 -76.123476
v -41.850934 20.000000 -20.051842
v -41.850934 20.000000 -18.123479
v -41.590462 0.000000 -77.600689
v -41.590462 0.000000 -76.574631
v -41.590462 0.000000 -19.600691
v -41.590462 0.000000 -18.574630
v -41.500001 20.000000 -77.087660
v -41.500001 20.000000 -19.087660
v -29.409540 340.000000 -203.013039
v -29.409540 340.000000 -201.986961
v -29.409540 355.000000 -203.013039
v -29.409540 355.000000 -201.986961
v -28.750000 340.000000 -203.799038
v -28.750000 340.000000 -201.200962
v -28.750000 355.000000 -203.799038
v -28.750000 355.000000 -201.200962
v -27.739527 340.000000 -203.977203
v -27.739527 340.000000 -201.022797
v -27.739527 355.000000 -203.977203
v -27.739527 355.000000 -201.022797
v -26.850934 340.000000 -203.464184
v -26.850934 340.000000 -201.535816
v -26.850934 355.000000 -203.464184
v -26.850934 355.000000 -201.535816
v -26.500001 340.000000 -202.500000
v -26.500001 355.000000 -202.500000
v -21.409538 340.000000 -133.013029
v -21.409538 340.000000 -131.986971
v -21.409538 355.000000 -133.013029
v -21.409538 355.000000 -131.986971
v -20.750000 340.000000 -133.799038
v -20.750000 340.000000 -131.200962
v -20.750000 355.000000 -133.799038
v -20.750000 355.000000 -131.200962
v -19.739528 340.000000 -133.977213
v -19.739528 340.000000 -131.022787
v -19.739528 355.000000 -133.977213
v -19.739528 355.000000 -131.022787
v -18.850933 340.000000 -133.464184
v -18.850933 340.000000 -131.535816
v -18.850933 355.000000 -133.464184
v -18.850933 355.000000 -131.535816
v -18.500000 340.000000 -132.500000
v -18.500000 355.000000 -132.500000
v -15.000000 176.000004 -205.000000
v -15.000000 176.000004 -192.000008
v -15.000000 178.999996 -205.000000
v -15.000000 178.999996 -192.000008
v -11.780000 176.000004 -201.000004
v -11.689539 178.999996 -201.513023
v -11.689539 178.999996 -200.486965
v -11.429067 176.000004 -201.964188
v -11.429067 176.000004 -200.035820
v -11.030000 178.999996 -202.299042
v -11.030000 178.999996 -199.700966
v -10.540472 176.000004 -202.477207
v -10.540472 176.000004 -199.522781
v -10.019528 178.999996 -202.477207
v -10.019528 178.999996 -199.522781
v -9.530000 176.000004 -202.299042
v -9.530000 176.000004 -199.700966
v -9.130933 178.999996 -201.964188
v -9.130933 178.999996 -200.035820
v -8.870461 176.000004 -201.513023
v -8.870461 176.000004 -200.486965
v -8.780000 178.999996 -201.000004
v 8.780000 176.000004 -201.000004
v 8.870461 178.999996 -201.513023
v 8.870461 178.999996 -200.486965
v 9.130933 176.000004 -201.964188
v 9.130933 176.000004 -200.035820
v 9.530000 178.999996 -202.299042
v 9.530000 178.999996 -199.700966
v 10.019528 176.000004 -202.477207
v 10.019528 176.000004 -199.522781
v 10.540472 178.999996 -202.477207
v 10.540472 178.999996 -199.522781
v 11.030000 176.000004 -202.299042
v 11.030000 176.000004 -199.700966
v 11.429067 178.999996 -201.964188
v 11.429067 178.999996 -200.035820
v 11.689539 176.000004 -201.513023
v 11.689539 176.000004 -200.486965
v 11.780000 178.999996 -201.000004
v 15.000000 176.000004 -205.000000
v 15.000000 176.000004 -192.000008
v 15.000000 178.999996 -205.000000
v 15.000000 178.999996 -192.000008
v 18.590461 340.000000 -133.013029
v 18.590461 340.000000 -131.986971
v 18.590461 355.000000 -133.013029
v 18.590461 355.000000 -131.986971
v 19.250000 340.000000 -133.799038
v 19.250000 340.000000 -131.200962
v 19.250000 355.000000 -133.799038
v 19.250000 355.000000 -131.200962
v 20.260472 340.000000 -133.977213
v 20.260472 340.000000 -131.022787
v 20.260472 355.000000 -133.977213
v 20.260472 355.000000 -131.022787
v 21.149065 340.000000 -133.464184
v 21.149065 340.000000 -131.535816
v 21.149065 355.000000 -133.464184
v 21.149065 355.000000 -131.535816
v 21.500001 340.000000 -132.500000
v 21.500001 355.000000 -132.500000
v 26.590462 340.000000 -203.013039
v 26.590462 340.000000 -201.986961
v 26.590462 355.000000 -203.013039
v 26.590462 355.000000 -201.986961
v 27.249999 340.000000 -203.799038
v 27.249999 340.000000 -201.200962
v 27.249999 355.000000 -203.799038
v 27.249999 355.000000 -201.200962
v 28.260472 340.000000 -203.977203
v 28.260472 340.000000 -201.022797
v 28.260472 355.000000 -203.977203
v 28.260472 355.000000 -201.022797
v 29.149067 340.000000 -203.464184
v 29.149067 340.000000 -201.535816
v 29.149067 355.000000 -203.464184
v 29.149067 355.000000 -201.535816
v 29.500000 340.000000 -202.500000
v 29.500000 355.000000 -202.500000
v 41.500001 0.000000 -77.087660
v 41.500001 0.000000 -19.087660
v 41.590462 20.000000 -77.600689
v 41.590462 20.000000 -76.574631
v 41.590462 20.000000 -19.600691
v 41.590462 20.000000 -18.574630
v 41.850934 0.000000 -78.051839
v 41.850934 0.000000 -76.123476
v 41.850934 0.000000 -20.051842
v 41.850934 0.000000 -18.123479
v 42.249999 20.000000 -78.386698
v 42.249999 20.000000 -75.788622
v 42.249999 20.000000 -20.386698
v 42.249999 20.000000 -17.788621
v 42.739530 0.000000 -78.564873
v 42.739530 0.000000 -75.610447
v 42.739530 0.000000 -20.564871
v 42.739530 0.000000 -17.610449
v 43.260474 20.000000 -78.564873
v 43.260474 20.000000 -75.610447
v 43.260474 20.000000 -20.564871
v 43.260474 20.000000 -17.610449
v 43.750000 0.000000 -78.386698
v 43.750000 0.000000 -75.788622
v 43.750000 0.000000 -20.386698
v 43.750000 0.000000 -17.788621
v 44.149065 20.000000 -78.051839
v 44.149065 20.000000 -76.123476
v 44.149065 20.000000 -20.051842
v 44.149065 20.000000 -18.123479
v 44.409537 0.000000 -77.600689
v 44.409537 0.000000 -76.574631
v 44.409537 0.000000 -19.600691
v 44.409537 0.000000 -18.574630
v 44.499998 20.000000 -77.087660
v 44.499998 20.000000 -19.087660
v 150.000000 0.000000 -225.000000
v 150.000000 0.000000 225.000000
v 150.000000 5.000000 89.572592
v 150.000000 5.000000 225.000000
v 150.000000 20.000000 -205.000000
v 150.000000 20.000000 80.912342
v 150.000000 335.000000 -205.000000
v 150.000000 335.000000 -100.952997
v 150.000000 355.000000 -225.000000
v 150.000000 355.000000 -112.500000
vt 0.300000 -0.471239 0.000000
vt 0.300000 -0.366519 0.000000
vt 0.300000 -0.261799 0.000000
vt 0.300000 -0.157080 0.000000
vt 0.300000 -0.052360 0.000000
vt 0.300000 0.052360 0.000000
vt 0.300000 0.157080 0.000000
vt 0.300000 0.261799 0.000000
vt 0.300000 0.366519 0.000000
vt 0.000000 0.000000 0.000000
vt 0.000000 -0.104720 0.000000
vt 0.000000 -0.209440 0.000000
vt 0.000000 -0.314159 0.000000
vt 0.000000 0.523599 0.000000
vt 0.000000 0.418879 0.000000
vt 0.000000 0.314159 0.000000
vt 0.000000 0.209440 0.000000
vt 0.000000 0.104720 0.000000
vt 0.000000 -0.418879 0.000000
vt 0.300000 0.471239 0.000000
vt 0.300000 0.471239 0.000000
vt 0.000000 -0.418879 0.000000
vt 0.300000 -0.471239 0.000000
vt 0.300000 -0.366519 0.000000
vt 0.300000 -0.261799 0.000000
vt 0.300000 -0.157080 0.000000
vt 0.300000 -0.052360 0.000000
vt 0.300000 0.052360 0.000000
vt 0.300000 0.157080 0.000000
vt 0.300000 0.261799 0.000000
vt 0.300000 0.366519 0.000000
vt 0.000000 0.000000 0.000000
vt 0.000000 -0.104720 0.000000
vt 0.000000 -0.209440 0.000000
vt 0.000000 -0.314159 0.000000
vt 0.000000 0.523599 0.000000
vt 0.000000 0.418879 0.000000
vt 0.000000 0.314159 0.000000
vt 0.000000 0.209440 0.000000
vt 0.000000 0.104720 0.000000
vt 0.000000 -0.418879 0.000000
vt 0.300000 0.471239 0.000000
vt 0.300000 0.471239 0.000000
vt 0.000000 -0.418879 0.000000
vt 0.000000 0.000000 0.000000
vt 0.300000 0.000000 0.000000
vt 0.300000 1.300000 0.000000
vt 0.000000 1.300000 0.000000
vt 0.322000 0.400000 0.000000
vt 0.357093 0.496418 0.000000
vt 0.445953 0.547721 0.000000
vt 0.547000 0.529904 0.000000
vt 0.612954 0.451303 0.000000
vt 0.612954 0.348697 0.000000
vt 0.547000 0.270096 0.000000
vt 0.445953 0.252279 0.000000
vt 0.357093 0.303582 0.000000
vt 2.378000 0.400000 0.000000
vt 2.413093 0.496418 0.000000
vt 2.501953 0.547721 0.000000
vt 2.603000 0.529904 0.000000
vt 2.668954 0.451303 0.000000
vt 2.668954 0.348697 0.000000
vt 2.603000 0.270096 0.000000
vt 2.501953 0.252279 0.000000
vt 2.413093 0.303582 0.000000
vt 0.000000 0.000000 0.000000
vt 3.000000 0.000000 0.000000
vt 3.000000 1.300000 0.000000
vt 0.000000 1.300000 0.000000
vt 0.000000 0.000000 0.000000
vt 0.300000 0.000000 0.000000
vt 0.300000 1.300000 0.000000
vt 0.000000 1.300000 0.000000
vt 2.378000 0.400000 0.000000
vt 2.413093 0.496418 0.000000
vt 2.501953 0.547721 0.000000
vt 2.603000 0.529904 0.000000
vt 2.668954 0.451303 0.000000
vt 2.668954 0.348697 0.000000
vt 2.603000 0.270096 0.000000
vt 2.501953 0.252279 0.000000
vt 2.413093 0.303582 0.000000
vt 0.322000 0.400000 0.000000
vt 0.357093 0.496418 0.000000
vt 0.445953 0.547721 0.000000
vt 0.547000 0.529904 0.000000
vt 0.612954 0.451303 0.000000
vt 0.612954 0.348697 0.000000
vt 0.547000 0.270096 0.000000
vt 0.445953 0.252279 0.000000
vt 0.357093 0.303582 0.000000
vt 0.000000 0.000000 0.000000
vt 3.000000 0.000000 0.000000
vt 3.000000 1.300000 0.000000
vt 0.000000 1.300000 0.000000
vt -1.500000 -0.150000 0.000000
vt 1.500000 -0.150000 0.000000
vt 1.500000 0.150000 0.000000
vt -1.500000 0.150000 0.000000
vt 2.000000 -0.471239 0.000000
vt 2.000000 -0.366519 0.000000
vt 2.000000 -0.261799 0.000000
vt 2.000000 -0.157080 0.000000
vt 2.000000 -0.052360 0.000000
vt 2.000000 0.052360 0.000000
vt 2.000000 0.157080 0.000000
vt 2.000000 0.261799 0.000000
vt 2.000000 0.366519 0.000000
vt 0.000000 0.000000 0.000000
vt 0.000000 -0.104720 0.000000
vt 0.000000 -0.209440 0.000000
vt 0.000000 -0.314159 0.000000
vt 0.000000 0.523599 0.000000
vt 0.000000 0.418879 0.000000
vt 0.000000 0.314159 0.000000
vt 0.000000 0.209440 0.000000
vt 0.000000 0.104720 0.000000
vt 0.000000 -0.418879 0.000000
vt 2.000000 0.471239 0.000000
vt 2.000000 0.471239 0.000000
vt 0.000000 -0.418879 0.000000
vt 2.000000 -0.471239 0.000000
vt 2.000000 -0.366519 0.000000
vt 2.000000 -0.261799 0.000000
vt 2.000000 -0.157080 0.000000
vt 2.000000 -0.052360 0.000000
vt 2.000000 0.052360 0.000000
vt 2.000000 0.157080 0.000000
vt 2.000000 0.261799 0.000000
vt 2.000000 0.366519 0.000000
vt 0.000000 0.000000 0.000000
vt 0.000000 -0.104720 0.000000
vt 0.000000 -0.209440 0.000000
vt 0.000000 -0.314159 0.000000
vt 0.000000 0.523599 0.000000
vt 0.000000 0.418879 0.000000
vt 0.000000 0.314159 0.000000
vt 0.000000 0.209440 0.000000
vt 0.000000 0.104720 0.000000
vt 0.000000 -0.418879 0.000000
vt 2.000000 0.471239 0.000000
vt 2.000000 0.471239 0.000000
vt 0.000000 -0.418879 0.000000
vt 2.000000 -0.471239 0.000000
vt 2.000000 -0.366519 0.000000
vt 2.000000 -0.261799 0.000000
vt 2.000000 -0.157080 0.000000
vt 2.000000 -0.052360 0.000000
vt 2.000000 0.052360 0.000000
vt 2.000000 0.157080 0.000000
vt 2.000000 0.261799 0.000000
vt 2.000000 0.366519 0.000000
vt 0.000000 0.000000 0.000000
vt 0.000000 -0.104720 0.000000
vt 0.000000 -0.209440 0.000000
vt 0.000000 -0.314159 0.000000
vt 0.000000 0.523599 0.000000
vt 0.000000 0.418879 0.000000
vt 0.000000 0.314159 0.000000
vt 0.000000 0.209440 0.000000
vt 0.000000 0.104720 0.000000
vt 0.000000 -0.418879 0.000000
vt 2.000000 0.471239 0.000000
vt 2.000000 0.471239 0.000000
vt 0.000000 -0.418879 0.000000
vt 2.000000 -0.471239 0.000000
vt 2.000000 -0.366519 0.000000
vt 2.000000 -0.261799 0.000000
vt 2.000000 -0.157080 0.000000
vt 2.000000 -0.052360 0.000000
vt 2.000000 0.052360 0.000000
vt 2.000000 0.157080 0.000000
vt 2.000000 0.261799 0.000000
vt 2.000000 0.366519 0.000000
vt 0.000000 0.000000 0.000000
vt 0.000000 -0.104720 0.000000
vt 0.000000 -0.209440 0.000000
vt 0.000000 -0.314159 0.000000
vt 0.000000 0.523599 0.000000
vt 0.000000 0.418879 0.000000
vt 0.000000 0.314159 0.000000
vt 0.000000 0.209440 0.000000
vt 0.000000 0.104720 0.000000
vt 0.000000 -0.418879 0.000000
vt 2.000000 0.471239 0.000000
vt 2.000000 0.471239 0.000000
vt 0.000000 -0.418879 0.000000
vt -18.591234 10.550000 0.000000
vt -18.687653 10.585093 0.000000
vt -18.738955 10.673953 0.000000
vt -18.721138 10.775000 0.000000
vt -18.642536 10.840954 0.000000
vt -18.539930 10.840954 0.000000
vt -18.461330 10.775000 0.000000
vt -18.443512 10.673953 0.000000
vt -18.494816 10.585093 0.000000
vt -12.791234 19.150000 0.000000
vt -12.887652 19.185093 0.000000
vt -12.938955 19.273952 0.000000
vt -12.921138 19.375000 0.000000
vt -12.842537 19.440954 0.000000
vt -12.739931 19.440954 0.000000
vt -12.661330 19.375000 0.000000
vt -12.643513 19.273952 0.000000
vt -12.694816 19.185093 0.000000
vt -12.791234 10.550000 0.000000
vt -12.887652 10.585093 0.000000
vt -12.938955 10.673953 0.000000
vt -12.921138 10.775000 0.000000
vt -12.842537 10.840954 0.000000
vt -12.739931 10.840954 0.000000
vt -12.661330 10.775000 0.000000
vt -12.643513 10.673953 0.000000
vt -12.694816 10.585093 0.000000
vt -18.591234 19.150000 0.000000
vt -18.687653 19.185093 0.000000
vt -18.738955 19.273952 0.000000
vt -18.721138 19.375000 0.000000
vt -18.642536 19.440954 0.000000
vt -18.539930 19.440954 0.000000
vt -18.461330 19.375000 0.000000
vt -18.443512 19.273952 0.000000
vt -18.494816 19.185093 0.000000
vt -28.591234 0.000000 0.000000
vt -0.000000 0.000000 0.000000
vt -0.000000 30.000000 0.000000
vt -28.591234 30.000000 0.000000
vt -15.900000 16.500000 0.000000
vt -15.600000 16.500000 0.000000
vt -15.600000 13.500000 0.000000
vt -15.900000 13.500000 0.000000
vt -31.500000 0.000000 0.000000
vt -0.000000 0.000000 0.000000
vt -0.000000 30.000000 0.000000
vt -31.500000 30.000000 0.000000
vt -10.404700 0.000000 0.000000
vt -0.000000 0.000000 0.000000
vt -0.000000 30.000000 0.000000
vt -10.404700 30.000000 0.000000
vt 30.591234 2.000000 0.000000
vt 2.000000 2.000000 0.000000
vt 2.000000 33.500000 0.000000
vt 12.404700 33.500000 0.000000
vt 11.250000 35.500000 0.000000
vt 0.000000 35.500000 0.000000
vt 0.000000 0.000000 0.000000
vt 45.000000 0.000000 0.000000
vt 45.000000 0.500000 0.000000
vt 31.457260 0.500000 0.000000
vt 38.105118 30.000000 0.000000
vt 38.105118 0.000000 0.000000
vt 40.414520 0.000000 0.000000
vt 40.414520 30.000000 0.000000
vt 32.595299 33.500000 0.000000
vt 43.000000 33.500000 0.000000
vt 43.000000 2.000000 0.000000
vt 14.408766 2.000000 0.000000
vt 13.542741 0.500000 0.000000
vt 0.000000 0.500000 0.000000
vt 0.000000 0.000000 0.000000
vt 45.000000 0.000000 0.000000
vt 45.000000 35.500000 0.000000
vt 33.750000 35.500000 0.000000
vt 1.500000 0.000000 0.000000
vt 1.500000 0.104720 0.000000
vt 1.500000 0.209440 0.000000
vt 1.500000 0.314159 0.000000
vt 1.500000 0.418879 0.000000
vt 1.500000 -0.418879 0.000000
vt 1.500000 -0.314159 0.000000
vt 1.500000 -0.209440 0.000000
vt 1.500000 -0.104720 0.000000
vt 0.000000 0.000000 0.000000
vt 0.000000 -0.104720 0.000000
vt 0.000000 -0.209440 0.000000
vt 0.000000 -0.314159 0.000000
vt 0.000000 0.523599 0.000000
vt 0.000000 0.418879 0.000000
vt 0.000000 0.314159 0.000000
vt 0.000000 0.209440 0.000000
vt 0.000000 0.104720 0.000000
vt 0.000000 -0.418879 0.000000
vt 0.000000 -0.418879 0.000000
vt 1.500000 0.523599 0.000000
vt 1.500000 0.523599 0.000000
vt 0.000000 0.150000 0.000000
vt -0.096418 0.114907 0.000000
vt -0.147721 0.026047 0.000000
vt -0.129904 -0.075000 0.000000
vt -0.051303 -0.140954 0.000000
vt 0.051303 -0.140954 0.000000
vt 0.129904 -0.075000 0.000000
vt 0.147721 0.026047 0.000000
vt 0.096418 0.114907 0.000000
vt 1.500000 0.000000 0.000000
vt 1.500000 0.104720 0.000000
vt 1.500000 0.209440 0.000000
vt 1.500000 0.314159 0.000000
vt 1.500000 0.418879 0.000000
vt 1.500000 -0.418879 0.000000
vt 1.500000 -0.314159 0.000000
vt 1.500000 -0.209440 0.000000
vt 1.500000 -0.104720 0.000000
vt 0.000000 0.000000 0.000000
vt 0.000000 -0.104720 0.000000
vt 0.000000 -0.209440 0.000000
vt 0.000000 -0.314159 0.000000
vt 0.000000 0.523599 0.000000
vt 0.000000 0.418879 0.000000
vt 0.000000 0.314159 0.000000
vt 0.000000 0.209440 0.000000
vt 0.000000 0.104720 0.000000
vt 0.000000 -0.418879 0.000000
vt 0.000000 -0.418879 0.000000
vt 1.500000 0.523599 0.000000
vt 1.500000 0.523599 0.000000
vt 0.000000 0.150000 0.000000
vt -0.096418 0.114907 0.000000
vt -0.147721 0.026047 0.000000
vt -0.129904 -0.075000 0.000000
vt -0.051303 -0.140954 0.000000
vt 0.051303 -0.140954 0.000000
vt 0.129904 -0.075000 0.000000
vt 0.147721 0.026047 0.000000
vt 0.096418 0.114907 0.000000
vt 1.500000 0.000000 0.000000
vt 1.500000 0.104720 0.000000
vt 1.500000 0.209440 0.000000
vt 1.500000 0.314159 0.000000
vt 1.500000 0.418879 0.000000
vt 1.500000 -0.418879 0.000000
vt 1.500000 -0.314159 0.000000
vt 1.500000 -0.209440 0.000000
vt 1.500000 -0.104720 0.000000
vt 0.000000 0.000000 0.000000
vt 0.000000 -0.104720 0.000000
vt 0.000000 -0.209440 0.000000
vt 0.000000 -0.314159 0.000000
vt 0.000000 0.523599 0.000000
vt 0.000000 0.418879 0.000000
vt 0.000000 0.314159 0.000000
vt 0.000000 0.209440 0.000000
vt 0.000000 0.104720 0.000000
vt 0.000000 -0.418879 0.000000
vt 0.000000 -0.418879 0.000000
vt 1.500000 0.523599 0.000000
vt 1.500000 0.523599 0.000000
vt 0.000000 0.150000 0.000000
vt -0.096418 0.114907 0.000000
vt -0.147721 0.026047 0.000000
vt -0.129904 -0.075000 0.000000
vt -0.051303 -0.140954 0.000000
vt 0.051303 -0.140954 0.000000
vt 0.129904 -0.075000 0.000000
vt 0.147721 0.026047 0.000000
vt 0.096418 0.114907 0.000000
vt 1.500000 0.000000 0.000000
vt 1.500000 0.104720 0.000000
vt 1.500000 0.209440 0.000000
vt 1.500000 0.314159 0.000000
vt 1.500000 0.418879 0.000000
vt 1.500000 -0.418879 0.000000
vt 1.500000 -0.314159 0.000000
vt 1.500000 -0.209440 0.000000
vt 1.500000 -0.104720 0.000000
vt 0.000000 0.000000 0.000000
vt 0.000000 -0.104720 0.000000
vt 0.000000 -0.209440 0.000000
vt 0.000000 -0.314159 0.000000
vt 0.000000 0.523599 0.000000
vt 0.000000 0.418879 0.000000
vt 0.000000 0.314159 0.000000
vt 0.000000 0.209440 0.000000
vt 0.000000 0.104720 0.000000
vt 0.000000 -0.418879 0.000000
vt 0.000000 -0.418879 0.000000
vt 1.500000 0.523599 0.000000
vt 1.500000 0.523599 0.000000
vt 0.000000 0.150000 0.000000
vt -0.096418 0.114907 0.000000
vt -0.147721 0.026047 0.000000
vt -0.129904 -0.075000 0.000000
vt -0.051303 -0.140954 0.000000
vt 0.051303 -0.140954 0.000000
vt 0.129904 -0.075000 0.000000
vt 0.147721 0.026047 0.000000
vt 0.096418 0.114907 0.000000
vt 1.732051 0.000000 0.000000
vt 1.732051 30.000000 0.000000
vt 0.000000 30.000000 0.000000
vt 0.000000 0.000000 0.000000
vt 3.625000 2.150000 0.000000
vt 3.721418 2.114907 0.000000
vt 3.772721 2.026047 0.000000
vt 3.754904 1.925000 0.000000
vt 3.676303 1.859046 0.000000
vt 3.573697 1.859046 0.000000
vt 3.495096 1.925000 0.000000
vt 3.477279 2.026047 0.000000
vt 3.528582 2.114907 0.000000
vt -3.375000 2.950000 0.000000
vt -3.278582 2.914907 0.000000
vt -3.227279 2.826047 0.000000
vt -3.245096 2.725000 0.000000
vt -3.323697 2.659046 0.000000
vt -3.426303 2.659046 0.000000
vt -3.504904 2.725000 0.000000
vt -3.522721 2.826047 0.000000
vt -3.471418 2.914907 0.000000
vt 3.625000 -1.850000 0.000000
vt 3.721418 -1.885093 0.000000
vt 3.772721 -1.973953 0.000000
vt 3.754904 -2.075000 0.000000
vt 3.676303 -2.140954 0.000000
vt 3.573697 -2.140954 0.000000
vt 3.495096 -2.075000 0.000000
vt 3.477279 -1.973953 0.000000
vt 3.528582 -1.885093 0.000000
vt -3.375000 -2.650000 0.000000
vt -3.278582 -2.685093 0.000000
vt -3.227279 -2.773953 0.000000
vt -3.245096 -2.875000 0.000000
vt -3.323697 -2.940954 0.000000
vt -3.426303 -2.940954 0.000000
vt -3.504904 -2.875000 0.000000
vt -3.522721 -2.773953 0.000000
vt -3.471418 -2.685093 0.000000
vt 5.625000 -15.000000 0.000000
vt 5.625000 15.000000 0.000000
vt -5.625000 15.000000 0.000000
vt -5.625000 -15.000000 0.000000
vt 8.957259 15.000000 0.000000
vt 8.957259 -15.000000 0.000000
vt 22.500000 -15.000000 0.000000
vt 22.500000 15.000000 0.000000
vt 0.000000 0.000000 0.000000
vt 30.000000 0.000000 0.000000
vt 30.000000 0.500000 0.000000
vt 0.000000 0.500000 0.000000
vt 0.000000 0.000000 0.000000
vt 30.000000 0.000000 0.000000
vt 30.000000 35.500000 0.000000
vt 0.000000 35.500000 0.000000
vt 1.908766 4.150000 0.000000
vt 1.812348 4.185093 0.000000
vt 1.761045 4.273953 0.000000
vt 1.778862 4.375000 0.000000
vt 1.857463 4.440954 0.000000
vt 1.960069 4.440954 0.000000
vt 2.038670 4.375000 0.000000
vt 2.056487 4.273953 0.000000
vt 2.005184 4.185093 0.000000
vt 7.708766 -4.450000 0.000000
vt 7.612348 -4.414907 0.000000
vt 7.561045 -4.326047 0.000000
vt 7.578862 -4.225000 0.000000
vt 7.657463 -4.159046 0.000000
vt 7.760069 -4.159046 0.000000
vt 7.838670 -4.225000 0.000000
vt 7.856487 -4.326047 0.000000
vt 7.805184 -4.414907 0.000000
vt 7.708766 4.150000 0.000000
vt 7.612348 4.185093 0.000000
vt 7.561045 4.273953 0.000000
vt 7.578862 4.375000 0.000000
vt 7.657463 4.440954 0.000000
vt 7.760069 4.440954 0.000000
vt 7.838670 4.375000 0.000000
vt 7.856487 4.273953 0.000000
vt 7.805184 4.185093 0.000000
vt 1.908766 -4.450000 0.000000
vt 1.812348 -4.414907 0.000000
vt 1.761045 -4.326047 0.000000
vt 1.778862 -4.225000 0.000000
vt 1.857463 -4.159046 0.000000
vt 1.960069 -4.159046 0.000000
vt 2.038670 -4.225000 0.000000
vt 2.056487 -4.326047 0.000000
vt 2.005184 -4.414907 0.000000
vt 22.500000 15.000000 0.000000
vt -22.500000 15.000000 0.000000
vt -22.500000 -15.000000 0.000000
vt 22.500000 -15.000000 0.000000
vn 0.100000 0.000000 0.000000
vn 0.076604 0.000000 0.064279
vn 0.017365 0.000000 0.098481
vn -0.050000 0.000000 0.086603
vn -0.093969 0.000000 0.034202
vn -0.093969 0.000000 -0.034202
vn -0.050000 0.000000 -0.086603
vn 0.017365 0.000000 -0.098481
vn 0.076604 0.000000 -0.064279
vn -0.100000 0.000000 0.000000
vn -0.076604 0.000000 0.064279
vn -0.017365 0.000000 0.098481
vn 0.050000 0.000000 0.086603
vn 0.093969 0.000000 0.034202
vn 0.093969 0.000000 -0.034202
vn 0.050000 0.000000 -0.086603
vn -0.017365 0.000000 -0.098481
vn -0.076604 0.000000 -0.064279
vn 0.093969 0.000000 0.034202
vn 0.100000 0.000000 0.000000
vn 0.100000 0.000000 0.000000
vn 0.093969 0.000000 0.034202
vn 0.100000 0.000000 0.000000
vn 0.076604 0.000000 0.064279
vn 0.017365 0.000000 0.098481
vn -0.050000 0.000000 0.086603
vn -0.093969 0.000000 0.034202
vn -0.093969 0.000000 -0.034202
vn -0.050000 0.000000 -0.086603
vn 0.017365 0.000000 -0.098481
vn 0.076604 0.000000 -0.064279
vn -0.100000 0.000000 0.000000
vn -0.076604 0.000000 0.064279
vn -0.017365 0.000000 0.098481
vn 0.050000 0.000000 0.086603
vn 0.093969 0.000000 0.034202
vn 0.093969 0.000000 -0.034202
vn 0.050000 0.000000 -0.086603
vn -0.017365 0.000000 -0.098481
vn -0.076604 0.000000 -0.064279
vn 0.093969 0.000000 0.034202
vn 0.100000 0.000000 0.000000
vn 0.100000 0.000000 0.000000
vn 0.093969 0.000000 0.034202
vn -0.100000 0.000000 0.000000
vn -0.100000 0.000000 0.000000
vn -0.100000 0.000000 0.000000
vn -0.100000 0.000000 0.000000
vn 0.000000 0.100000 0.000000
vn 0.000000 0.100000 0.000000
vn 0.000000 0.100000 0.000000
vn 0.000000 0.100000 0.000000
vn 0.000000 0.100000 0.000000
vn 0.000000 0.100000 0.000000
vn 0.000000 0.100000 0.000000
vn 0.000000 0.100000 0.000000
vn 0.000000 0.100000 0.000000
vn 0.000000 0.100000 0.000000
vn 0.000000 0.100000 0.000000
vn 0.000000 0.100000 0.000000
vn 0.000000 0.100000 0.000000
vn 0.000000 0.100000 0.000000
vn 0.000000 0.100000 0.000000
vn 0.000000 0.100000 0.000000
vn 0.000000 0.100000 0.000000
vn 0.000000 0.100000 0.000000
vn 0.000000 0.100000 0.000000
vn 0.000000 0.100000 0.000000
vn 0.000000 0.100000 0.000000
vn 0.000000 0.100000 0.000000
vn 0.100000 0.000000 0.000000
vn 0.100000 0.000000 0.000000
vn 0.100000 0.000000 0.000000
vn 0.100000 0.000000 0.000000
vn 0.000000 -0.100000 0.000000
vn 0.000000 -0.100000 0.000000
vn 0.000000 -0.100000 0.000000
vn 0.000000 -0.100000 0.000000
vn 0.000000 -0.100000 0.000000
vn 0.000000 -0.100000 0.000000
vn 0.000000 -0.100000 0.000000
vn 0.000000 -0.100000 0.000000
vn 0.000000 -0.100000 0.000000
vn 0.000000 -0.100000 0.000000
vn 0.000000 -0.100000 0.000000
vn 0.000000 -0.100000 0.000000
vn 0.000000 -0.100000 0.000000
vn 0.000000 -0.100000 0.000000
vn 0.000000 -0.100000 0.000000
vn 0.000000 -0.100000 0.000000
vn 0.000000 -0.100000 0.000000
vn 0.000000 -0.100000 0.000000
vn 0.000000 -0.100000 0.000000
vn 0.000000 -0.100000 0.000000
vn 0.000000 -0.100000 0.000000
vn 0.000000 -0.100000 0.000000
vn 0.000000 0.000000 0.100000
vn 0.000000 0.000000 0.100000
vn 0.000000 0.000000 0.100000
vn 0.000000 0.000000 0.100000
vn 0.100000 0.000000 0.000000
vn 0.076604 0.000000 0.064279
vn 0.017365 0.000000 0.098481
vn -0.050000 0.000000 0.086603
vn -0.093969 0.000000 0.034202
vn -0.093969 0.000000 -0.034202
vn -0.050000 0.000000 -0.086603
vn 0.017365 0.000000 -0.098481
vn 0.076604 0.000000 -0.064279
vn -0.100000 0.000000 0.000000
vn -0.076604 0.000000 0.064279
vn -0.017365 0.000000 0.098481
vn 0.050000 0.000000 0.086603
vn 0.093969 0.000000 0.034202
vn 0.093969 0.000000 -0.034202
vn 0.050000 0.000000 -0.086603
vn -0.017365 0.000000 -0.098481
vn -0.076604 0.000000 -0.064279
vn 0.093969 0.000000 0.034202
vn 0.100000 0.000000 0.000000
vn 0.100000 0.000000 0.000000
vn 0.093969 0.000000 0.034202
vn 0.100000 0.000000 0.000000
vn 0.076604 0.000000 0.064279
vn 0.017365 0.000000 0.098481
vn -0.050000 0.000000 0.086603
vn -0.093969 0.000000 0.034202
vn -0.093969 0.000000 -0.034202
vn -0.050000 0.000000 -0.086603
vn 0.017365 0.000000 -0.098481
vn 0.076604 0.000000 -0.064279
vn -0.100000 0.000000 0.000000
vn -0.076604 0.000000 0.064279
vn -0.017365 0.000000 0.098481
vn 0.050000 0.000000 0.086603
vn 0.093969 0.000000 0.034202
vn 0.093969 0.000000 -0.034202
vn 0.050000 0.000000 -0.086603
vn -0.017365 0.000000 -0.098481
vn -0.076604 0.000000 -0.064279
vn 0.093969 0.000000 0.034202
vn 0.100000 0.000000 0.000000
vn 0.100000 0.000000 0.000000
vn 0.093969 0.000000 0.034202
vn 0.100000 0.000000 0.000000
vn 0.076604 0.000000 0.064279
vn 0.017365 0.000000 0.098481
vn -0.050000 0.000000 0.086603
vn -0.093969 0.000000 0.034202
vn -0.093969 0.000000 -0.034202
vn -0.050000 0.000000 -0.086603
vn 0.017365 0.000000 -0.098481
vn 0.076604 0.000000 -0.064279
vn -0.100000 0.000000 0.000000
vn -0.076604 0.000000 0.064279
vn -0.017365 0.000000 0.098481
vn 0.050000 0.000000 0.086603
vn 0.093969 0.000000 0.034202
vn 0.093969 0.000000 -0.034202
vn 0.050000 0.000000 -0.086603
vn -0.017365 0.000000 -0.098481
vn -0.076604 0.000000 -0.064279
vn 0.093969 0.000000 0.034202
vn 0.100000 0.000000 0.000000
vn 0.100000 0.000000 0.000000
vn 0.093969 0.000000 0.034202
vn 0.100000 0.000000 0.000000
vn 0.076604 0.000000 0.064279
vn 0.017365 0.000000 0.098481
vn -0.050000 0.000000 0.086603
vn -0.093969 0.000000 0.034202
vn -0.093969 0.000000 -0.034202
vn -0.050000 0.000000 -0.086603
vn 0.017365 0.000000 -0.098481
vn 0.076604 0.000000 -0.064279
vn -0.100000 0.000000 0.000000
vn -0.076604 0.000000 0.064279
vn -0.017365 0.000000 0.098481
vn 0.050000 0.000000 0.086603
vn 0.093969 0.000000 0.034202
vn 0.093969 0.000000 -0.034202
vn 0.050000 0.000000 -0.086603
vn -0.017365 0.000000 -0.098481
vn -0.076604 0.000000 -0.064279
vn 0.093969 0.000000 0.034202
vn 0.100000 0.000000 0.000000
vn 0.100000 0.000000 0.000000
vn 0.093969 0.000000 0.034202
vn 0.000000 0.100000 0.000000
vn 0.000000 0.100000 0.000000
vn 0.000000 0.100000 0.000000
vn 0.000000 0.100000 0.000000
vn 0.000000 0.100000 0.000000
vn 0.000000 0.100000 0.000000
vn 0.000000 0.100000 0.000000
vn 0.000000 0.100000 0.000000
vn 0.000000 0.100000 0.000000
vn 0.000000 0.100000 0.000000
vn 0.000000 0.100000 0.000000
vn 0.000000 0.100000 0.000000
vn 0.000000 0.100000 0.000000
vn 0.000000 0.100000 0.000000
vn 0.000000 0.100000 0.000000
vn 0.000000 0.100000 0.000000
vn 0.000000 0.100000 0.000000
vn 0.000000 0.100000 0.000000
vn 0.000000 0.100000 0.000000
vn 0.000000 0.100000 0.000000
vn 0.000000 0.100000 0.000000
vn 0.000000 0.100000 0.000000
vn 0.000000 0.100000 0.000000
vn 0.000000 0.100000 0.000000
vn 0.000000 0.100000 0.000000
vn 0.000000 0.100000 0.000000
vn 0.000000 0.100000 0.000000
vn 0.000000 0.100000 0.000000
vn 0.000000 0.100000 0.000000
vn 0.000000 0.100000 0.000000
vn 0.000000 0.100000 0.000000
vn 0.000000 0.100000 0.000000
vn 0.000000 0.100000 0.000000
vn 0.000000 0.100000 0.000000
vn 0.000000 0.100000 0.000000
vn 0.000000 0.100000 0.000000
vn 0.000000 0.100000 0.000000
vn 0.000000 0.100000 0.000000
vn 0.000000 0.100000 0.000000
vn 0.000000 0.100000 0.000000
vn 0.000000 0.000000 0.100000
vn 0.000000 0.000000 0.100000
vn 0.000000 0.000000 0.100000
vn 0.000000 0.000000 0.100000
vn 0.000000 0.000000 0.100000
vn 0.000000 0.000000 0.100000
vn 0.000000 0.000000 0.100000
vn 0.000000 0.000000 0.100000
vn 0.000000 -0.100000 0.000000
vn 0.000000 -0.100000 0.000000
vn 0.000000 -0.100000 0.000000
vn 0.000000 -0.100000 0.000000
vn -0.100000 0.000000 0.000000
vn -0.100000 0.000000 0.000000
vn -0.100000 0.000000 0.000000
vn -0.100000 0.000000 0.000000
vn -0.100000 0.000000 0.000000
vn -0.100000 0.000000 0.000000
vn -0.100000 0.000000 0.000000
vn -0.100000 0.000000 0.000000
vn -0.100000 0.000000 0.000000
vn -0.100000 0.000000 0.000000
vn 0.000000 0.050000 0.086603
vn 0.000000 0.050000 0.086603
vn 0.000000 0.050000 0.086603
vn 0.000000 0.050000 0.086603
vn 0.100000 0.000000 0.000000
vn 0.100000 0.000000 0.000000
vn 0.100000 0.000000 0.000000
vn 0.100000 0.000000 0.000000
vn 0.100000 0.000000 0.000000
vn 0.100000 0.000000 0.000000
vn 0.100000 0.000000 0.000000
vn 0.100000 0.000000 0.000000
vn 0.100000 0.000000 0.000000
vn 0.100000 0.000000 0.000000
vn -0.100000 0.000000 0.000000
vn -0.076604 0.000000 -0.064279
vn -0.017365 0.000000 -0.098481
vn 0.050000 0.000000 -0.086603
vn 0.093969 0.000000 -0.034202
vn 0.093969 0.000000 0.034202
vn 0.050000 0.000000 0.086603
vn -0.017365 0.000000 0.098481
vn -0.076604 0.000000 0.064279
vn -0.100000 0.000000 0.000000
vn -0.076604 0.000000 0.064279
vn -0.017365 0.000000 0.098481
vn 0.050000 0.000000 0.086603
vn 0.093969 0.000000 0.034202
vn 0.093969 0.000000 -0.034202
vn 0.050000 0.000000 -0.086603
vn -0.017365 0.000000 -0.098481
vn -0.076604 0.000000 -0.064279
vn 0.093969 0.000000 0.034202
vn 0.093969 0.000000 0.034202
vn 0.093969 0.000000 0.034202
vn 0.093969 0.000000 0.034202
vn 0.000000 0.100000 0.000000
vn 0.000000 0.100000 0.000000
vn 0.000000 0.100000 0.000000
vn 0.000000 0.100000 0.000000
vn 0.000000 0.100000 0.000000
vn 0.000000 0.100000 0.000000
vn 0.000000 0.100000 0.000000
vn 0.000000 0.100000 0.000000
vn 0.000000 0.100000 0.000000
vn -0.100000 0.000000 0.000000
vn -0.076604 0.000000 -0.064279
vn -0.017365 0.000000 -0.098481
vn 0.050000 0.000000 -0.086603
vn 0.093969 0.000000 -0.034202
vn 0.093969 0.000000 0.034202
vn 0.050000 0.000000 0.086603
vn -0.017365 0.000000 0.098481
vn -0.076604 0.000000 0.064279
vn -0.100000 0.000000 0.000000
vn -0.076604 0.000000 0.064279
vn -0.017365 0.000000 0.098481
vn 0.050000 0.000000 0.086603
vn 0.093969 0.000000 0.034202
vn 0.093969 0.000000 -0.034202
vn 0.050000 0.000000 -0.086603
vn -0.017365 0.000000 -0.098481
vn -0.076604 0.000000 -0.064279
vn 0.093969 0.000000 0.034202
vn 0.093969 0.000000 0.034202
vn 0.093969 0.000000 0.034202
vn 0.093969 0.000000 0.034202
vn 0.000000 0.100000 0.000000
vn 0.000000 0.100000 0.000000
vn 0.000000 0.100000 0.000000
vn 0.000000 0.100000 0.000000
vn 0.000000 0.100000 0.000000
vn 0.000000 0.100000 0.000000
vn 0.000000 0.100000 0.000000
vn 0.000000 0.100000 0.000000
vn 0.000000 0.100000 0.000000
vn -0.100000 0.000000 0.000000
vn -0.076604 0.000000 -0.064279
vn -0.017365 0.000000 -0.098481
vn 0.050000 0.000000 -0.086603
vn 0.093969 0.000000 -0.034202
vn 0.093969 0.000000 0.034202
vn 0.050000 0.000000 0.086603
vn -0.017365 0.000000 0.098481
vn -0.076604 0.000000 0.064279
vn -0.100000 0.000000 0.000000
vn -0.076604 0.000000 0.064279
vn -0.017365 0.000000 0.098481
vn 0.050000 0.000000 0.086603
vn 0.093969 0.000000 0.034202
vn 0.093969 0.000000 -0.034202
vn 0.050000 0.000000 -0.086603
vn -0.017365 0.000000 -0.098481
vn -0.076604 0.000000 -0.064279
vn 0.093969 0.000000 0.034202
vn 0.093969 0.000000 0.034202
vn 0.093969 0.000000 0.034202
vn 0.093969 0.000000 0.034202
vn 0.000000 0.100000 0.000000
vn 0.000000 0.100000 0.000000
vn 0.000000 0.100000 0.000000
vn 0.000000 0.100000 0.000000
vn 0.000000 0.100000 0.000000
vn 0.000000 0.100000 0.000000
vn 0.000000 0.100000 0.000000
vn 0.000000 0.100000 0.000000
vn 0.000000 0.100000 0.000000
vn -0.100000 0.000000 0.000000
vn -0.076604 0.000000 -0.064279
vn -0.017365 0.000000 -0.098481
vn 0.050000 0.000000 -0.086603
vn 0.093969 0.000000 -0.034202
vn 0.093969 0.000000 0.034202
vn 0.050000 0.000000 0.086603
vn -0.017365 0.000000 0.098481
vn -0.076604 0.000000 0.064279
vn -0.100000 0.000000 0.000000
vn -0.076604 0.000000 0.064279
vn -0.017365 0.000000 0.098481
vn 0.050000 0.000000 0.086603
vn 0.093969 0.000000 0.034202
vn 0.093969 0.000000 -0.034202
vn 0.050000 0.000000 -0.086603
vn -0.017365 0.000000 -0.098481
vn -0.076604 0.000000 -0.064279
vn 0.093969 0.000000 0.034202
vn 0.093969 0.000000 0.034202
vn 0.093969 0.000000 0.034202
vn 0.093969 0.000000 0.034202
vn 0.000000 0.100000 0.000000
vn 0.000000 0.100000 0.000000
vn 0.000000 0.100000 0.000000
vn 0.000000 0.100000 0.000000
vn 0.000000 0.100000 0.000000
vn 0.000000 0.100000 0.000000
vn 0.000000 0.100000 0.000000
vn 0.000000 0.100000 0.000000
vn 0.000000 0.100000 0.000000
vn 0.000000 0.050000 0.086603
vn 0.000000 0.050000 0.086603
vn 0.000000 0.050000 0.086603
vn 0.000000 0.050000 0.086603
vn 0.000000 0.100000 0.000000
vn 0.000000 0.100000 0.000000
vn 0.000000 0.100000 0.000000
vn 0.000000 0.100000 0.000000
vn 0.000000 0.100000 0.000000
vn 0.000000 0.100000 0.000000
vn 0.000000 0.100000 0.000000
vn 0.000000 0.100000 0.000000
vn 0.000000 0.100000 0.000000
vn 0.000000 0.100000 0.000000
vn 0.000000 0.100000 0.000000
vn 0.000000 0.100000 0.000000
vn 0.000000 0.100000 0.000000
vn 0.000000 0.100000 0.000000
vn 0.000000 0.100000 0.000000
vn 0.000000 0.100000 0.000000
vn 0.000000 0.100000 0.000000
vn 0.000000 0.100000 0.000000
vn 0.000000 0.100000 0.000000
vn 0.000000 0.100000 0.000000
vn 0.000000 0.100000 0.000000
vn 0.000000 0.100000 0.000000
vn 0.000000 0.100000 0.000000
vn 0.000000 0.100000 0.000000
vn 0.000000 0.100000 0.000000
vn 0.000000 0.100000 0.000000
vn 0.000000 0.100000 0.000000
vn 0.000000 0.100000 0.000000
vn 0.000000 0.100000 0.000000
vn 0.000000 0.100000 0.000000
vn 0.000000 0.100000 0.000000
vn 0.000000 0.100000 0.000000
vn 0.000000 0.100000 0.000000
vn 0.000000 0.100000 0.000000
vn 0.000000 0.100000 0.000000
vn 0.000000 0.100000 0.000000
vn 0.000000 0.100000 0.000000
vn 0.000000 0.100000 0.000000
vn 0.000000 0.100000 0.000000
vn 0.000000 0.100000 0.000000
vn 0.000000 0.100000 0.000000
vn 0.000000 0.100000 0.000000
vn 0.000000 0.100000 0.000000
vn 0.000000 0.100000 0.000000
vn 0.000000 0.000000 0.100000
vn 0.000000 0.000000 0.100000
vn 0.000000 0.000000 0.100000
vn 0.000000 0.000000 0.100000
vn 0.000000 0.000000 -0.100000
vn 0.000000 0.000000 -0.100000
vn 0.000000 0.000000 -0.100000
vn 0.000000 0.000000 -0.100000
vn 0.000000 -0.100000 0.000000
vn 0.000000 -0.100000 0.000000
vn 0.000000 -0.100000 0.000000
vn 0.000000 -0.100000 0.000000
vn 0.000000 -0.100000 0.000000
vn 0.000000 -0.100000 0.000000
vn 0.000000 -0.100000 0.000000
vn 0.000000 -0.100000 0.000000
vn 0.000000 -0.100000 0.000000
vn 0.000000 -0.100000 0.000000
vn 0.000000 -0.100000 0.000000
vn 0.000000 -0.100000 0.000000
vn 0.000000 -0.100000 0.000000
vn 0.000000 -0.100000 0.000000
vn 0.000000 -0.100000 0.000000
vn 0.000000 -0.100000 0.000000
vn 0.000000 -0.100000 0.000000
vn 0.000000 -0.100000 0.000000
vn 0.000000 -0.100000 0.000000
vn 0.000000 -0.100000 0.000000
vn 0.000000 -0.100000 0.000000
vn 0.000000 -0.100000 0.000000
vn 0.000000 -0.100000 0.000000
vn 0.000000 -0.100000 0.000000
vn 0.000000 -0.100000 0.000000
vn 0.000000 -0.100000 0.000000
vn 0.000000 -0.100000 0.000000
vn 0.000000 -0.100000 0.000000
vn 0.000000 -0.100000 0.000000
vn 0.000000 -0.100000 0.000000
vn 0.000000 -0.100000 0.000000
vn 0.000000 -0.100000 0.000000
vn 0.000000 -0.100000 0.000000
vn 0.000000 -0.100000 0.000000
vn 0.000000 -0.100000 0.000000
vn 0.000000 -0.100000 0.000000
vn 0.000000 -0.100000 0.000000
vn 0.000000 -0.100000 0.000000
vn 0.000000 -0.100000 0.000000
vn 0.000000 -0.100000 0.000000
usemtl 191,191,191
f 108/2/2 106/19/19 105/1/1
f 105/20/20 106/14/14 107/15/15
f 105/21/21 107/15/15 109/9/9
f 109/9/9 107/15/15 111/16/16
f 109/9/9 111/16/16 113/8/8
f 113/8/8 111/16/16 115/17/17
f 113/8/8 115/17/17 117/7/7
f 117/7/7 115/17/17 119/18/18
f 117/7/7 119/18/18 121/6/6
f 121/6/6 119/18/18 122/10/10
f 121/6/6 122/10/10 120/5/5
f 120/5/5 122/10/10 118/11/11
f 120/5/5 118/11/11 116/4/4
f 116/4/4 118/11/11 114/12/12
f 116/4/4 114/12/12 112/3/3
f 112/3/3 114/12/12 110/13/13
f 112/3/3 110/13/13 108/2/2
f 108/2/2 110/13/13 106/22/22
f 90/24/24 88/41/41 87/23/23
f 87/42/42 88/36/36 89/37/37
f 87/43/43 89/37/37 91/31/31
f 91/31/31 89/37/37 93/38/38
f 91/31/31 93/38/38 95/30/30
f 95/30/30 93/38/38 97/39/39
f 95/30/30 97/39/39 99/29/29
f 99/29/29 97/39/39 101/40/40
f 99/29/29 101/40/40 103/28/28
f 103/28/28 101/40/40 104/32/32
f 103/28/28 104/32/32 102/27/27
f 102/27/27 104/32/32 100/33/33
f 102/27/27 100/33/33 98/26/26
f 98/26/26 100/33/33 96/34/34
f 98/26/26 96/34/34 94/25/25
f 94/25/25 96/34/34 92/35/35
f 94/25/25 92/35/35 90/24/24
f 90/24/24 92/35/35 88/44/44
f 85/45/45 83/46/46 86/48/48
f 86/48/48 83/46/46 84/47/47
f 119/50/50 126/70/70 122/49/49
f 122/49/49 126/70/70 125/67/67
f 122/49/49 125/67/67 118/57/57
f 118/57/57 125/67/67 114/56/56
f 114/56/56 125/67/67 110/55/55
f 110/55/55 125/67/67 96/65/65
f 110/55/55 96/65/65 100/66/66
f 119/50/50 115/51/51 126/70/70
f 126/70/70 115/51/51 111/52/52
f 126/70/70 111/52/52 97/60/60
f 97/60/60 111/52/52 101/59/59
f 101/59/59 111/52/52 107/53/53
f 101/59/59 107/53/53 104/58/58
f 104/58/58 107/53/53 106/54/54
f 104/58/58 106/54/54 100/66/66
f 100/66/66 106/54/54 110/55/55
f 126/70/70 97/60/60 86/69/69
f 86/69/69 97/60/60 93/61/61
f 86/69/69 93/61/61 89/62/62
f 86/69/69 89/62/62 85/68/68
f 85/68/68 89/62/62 88/63/63
f 85/68/68 88/63/63 92/64/64
f 92/64/64 96/65/65 85/68/68
f 85/68/68 96/65/65 125/67/67
f 123/71/71 125/72/72 124/74/74
f 124/74/74 125/72/72 126/73/73
f 109/76/76 103/88/88 105/75/75
f 105/75/75 103/88/88 102/89/89
f 105/75/75 102/89/89 108/83/83
f 108/83/83 102/89/89 98/90/90
f 108/83/83 98/90/90 112/82/82
f 112/82/82 98/90/90 83/93/93
f 112/82/82 83/93/93 123/94/94
f 103/88/88 109/76/76 99/87/87
f 99/87/87 109/76/76 113/77/77
f 99/87/87 113/77/77 84/96/96
f 84/96/96 113/77/77 124/95/95
f 124/95/95 113/77/77 117/78/78
f 124/95/95 117/78/78 121/79/79
f 124/95/95 121/79/79 123/94/94
f 123/94/94 121/79/79 120/80/80
f 123/94/94 120/80/80 116/81/81
f 116/81/81 112/82/82 123/94/94
f 91/85/85 84/96/96 87/84/84
f 87/84/84 84/96/96 83/93/93
f 87/84/84 83/93/93 90/92/92
f 90/92/92 83/93/93 94/91/91
f 94/91/91 83/93/93 98/90/90
f 91/85/85 95/86/86 84/96/96
f 84/96/96 95/86/86 99/87/87
f 84/97/97 124/98/98 86/100/100
f 86/100/100 124/98/98 126/99/99
f 171/102/102 167/119/119 164/101/101
f 164/120/120 167/114/114 168/115/115
f 164/121/121 168/115/115 172/109/109
f 172/109/109 168/115/115 176/116/116
f 172/109/109 176/116/116 180/108/108
f 180/108/108 176/116/116 184/117/117
f 180/108/108 184/117/117 188/107/107
f 188/107/107 184/117/117 192/118/118
f 188/107/107 192/118/118 196/106/106
f 196/106/106 192/118/118 198/110/110
f 196/106/106 198/110/110 195/105/105
f 195/105/105 198/110/110 191/111/111
f 195/105/105 191/111/111 187/104/104
f 187/104/104 191/111/111 183/112/112
f 187/104/104 183/112/112 179/103/103
f 179/103/103 183/112/112 175/113/113
f 179/103/103 175/113/113 171/102/102
f 171/102/102 175/113/113 167/122/122
f 17/124/124 13/141/141 11/123/123
f 11/142/142 13/136/136 14/137/137
f 11/143/143 14/137/137 18/131/131
f 18/131/131 14/137/137 22/138/138
f 18/131/131 22/138/138 26/130/130
f 26/130/130 22/138/138 30/139/139
f 26/130/130 30/139/139 34/129/129
f 34/129/129 30/139/139 38/140/140
f 34/129/129 38/140/140 42/128/128
f 42/128/128 38/140/140 45/132/132
f 42/128/128 45/132/132 41/127/127
f 41/127/127 45/132/132 37/133/133
f 41/127/127 37/133/133 33/126/126
f 33/126/126 37/133/133 29/134/134
f 33/126/126 29/134/134 25/125/125
f 25/125/125 29/134/134 21/135/135
f 25/125/125 21/135/135 17/124/124
f 17/124/124 21/135/135 13/144/144
f 169/146/146 165/163/163 163/145/145
f 163/164/164 165/158/158 166/159/159
f 163/165/165 166/159/159 170/153/153
f 170/153/153 166/159/159 174/160/160
f 170/153/153 174/160/160 178/152/152
f 178/152/152 174/160/160 182/161/161
f 178/152/152 182/161/161 186/151/151
f 186/151/151 182/161/161 190/162/162
f 186/151/151 190/162/162 194/150/150
f 194/150/150 190/162/162 197/154/154
f 194/150/150 197/154/154 193/149/149
f 193/149/149 197/154/154 189/155/155
f 193/149/149 189/155/155 185/148/148
f 185/148/148 189/155/155 181/156/156
f 185/148/148 181/156/156 177/147/147
f 177/147/147 181/156/156 173/157/157
f 177/147/147 173/157/157 169/146/146
f 169/146/146 173/157/157 165/166/166
f 19/168/168 15/185/185 12/167/167
f 12/186/186 15/180/180 16/181/181
f 12/187/187 16/181/181 20/175/175
f 20/175/175 16/181/181 24/182/182
f 20/175/175 24/182/182 28/174/174
f 28/174/174 24/182/182 32/183/183
f 28/174/174 32/183/183 36/173/173
f 36/173/173 32/183/183 40/184/184
f 36/173/173 40/184/184 44/172/172
f 44/172/172 40/184/184 46/176/176
f 44/172/172 46/176/176 43/171/171
f 43/171/171 46/176/176 39/177/177
f 43/171/171 39/177/177 35/170/170
f 35/170/170 39/177/177 31/178/178
f 35/170/170 31/178/178 27/169/169
f 27/169/169 31/178/178 23/179/179
f 27/169/169 23/179/179 19/168/168
f 19/168/168 23/179/179 15/188/188
f 192/190/190 204/225/225 198/189/189
f 198/189/189 204/225/225 197/207/207
f 198/189/189 197/207/207 191/197/197
f 191/197/197 197/207/207 190/208/208
f 191/197/197 190/208/208 183/196/196
f 183/196/196 190/208/208 182/209/209
f 183/196/196 182/209/209 175/195/195
f 175/195/195 182/209/209 174/210/210
f 175/195/195 174/210/210 167/194/194
f 167/194/194 174/210/210 166/211/211
f 167/194/194 166/211/211 39/224/224
f 39/224/224 166/211/211 38/199/199
f 39/224/224 38/199/199 31/223/223
f 31/223/223 38/199/199 30/200/200
f 31/223/223 30/200/200 23/222/222
f 23/222/222 30/200/200 22/201/201
f 23/222/222 22/201/201 15/221/221
f 15/221/221 22/201/201 14/202/202
f 15/221/221 14/202/202 6/228/228
f 6/228/228 14/202/202 5/227/227
f 5/227/227 14/202/202 13/203/203
f 5/227/227 13/203/203 21/204/204
f 192/190/190 184/191/191 204/225/225
f 204/225/225 184/191/191 176/192/192
f 204/225/225 176/192/192 32/218/218
f 32/218/218 176/192/192 40/217/217
f 40/217/217 176/192/192 168/193/193
f 40/217/217 168/193/193 46/216/216
f 46/216/216 168/193/193 167/194/194
f 46/216/216 167/194/194 39/224/224
f 38/199/199 166/211/211 45/198/198
f 45/198/198 166/211/211 165/212/212
f 45/198/198 165/212/212 37/206/206
f 37/206/206 165/212/212 173/213/213
f 37/206/206 173/213/213 29/205/205
f 29/205/205 173/213/213 203/226/226
f 29/205/205 203/226/226 5/227/227
f 21/204/204 29/205/205 5/227/227
f 173/213/213 181/214/214 203/226/226
f 203/226/226 181/214/214 189/215/215
f 203/226/226 189/215/215 197/207/207
f 204/225/225 32/218/218 6/228/228
f 6/228/228 32/218/218 24/219/219
f 6/228/228 24/219/219 16/220/220
f 16/220/220 15/221/221 6/228/228
f 204/225/225 203/226/226 197/207/207
f 85/230/230 5/236/236 83/229/229
f 83/229/229 5/236/236 203/233/233
f 83/229/229 203/233/233 123/232/232
f 123/232/232 203/233/233 205/234/234
f 123/232/232 205/234/234 125/231/231
f 125/231/231 205/234/234 85/230/230
f 85/230/230 205/234/234 7/235/235
f 85/230/230 7/235/235 5/236/236
f 205/237/237 206/238/238 7/240/240
f 7/240/240 206/238/238 8/239/239
f 6/241/241 5/242/242 3/250/250
f 3/250/250 5/242/242 1/247/247
f 3/250/250 1/247/247 2/248/248
f 5/242/242 7/243/243 1/247/247
f 1/247/247 7/243/243 9/246/246
f 9/246/246 7/243/243 10/245/245
f 10/245/245 7/243/243 8/244/244
f 2/248/248 4/249/249 3/250/250
f 206/252/252 208/253/253 8/251/251
f 8/251/251 208/253/253 10/254/254
f 206/255/255 205/256/256 208/264/264
f 208/264/264 205/256/256 207/263/263
f 207/263/263 205/256/256 199/262/262
f 199/262/262 205/256/256 203/257/257
f 199/262/262 203/257/257 201/259/259
f 201/259/259 203/257/257 204/258/258
f 202/260/260 200/261/261 201/259/259
f 201/259/259 200/261/261 199/262/262
f 140/266/266 144/274/274 143/265/265
f 143/265/265 144/274/274 141/275/275
f 143/265/265 141/275/275 139/273/273
f 139/273/273 141/275/275 137/276/276
f 139/273/273 137/276/276 135/272/272
f 135/272/272 137/276/276 133/277/277
f 135/272/272 133/277/277 131/271/271
f 131/271/271 133/277/277 129/283/283
f 131/271/271 129/284/284 127/270/270
f 127/285/285 129/278/278 130/279/279
f 127/286/286 130/279/279 128/269/269
f 128/269/269 130/279/279 134/280/280
f 128/269/269 134/280/280 132/268/268
f 132/268/268 134/280/280 138/281/281
f 132/268/268 138/281/281 136/267/267
f 136/267/267 138/281/281 142/282/282
f 136/267/267 142/282/282 140/266/266
f 140/266/266 142/282/282 144/274/274
f 143/287/287 139/288/288 140/295/295
f 140/295/295 139/288/288 136/294/294
f 136/294/294 139/288/288 135/289/289
f 136/294/294 135/289/289 132/293/293
f 132/293/293 135/289/289 131/290/290
f 132/293/293 131/290/290 128/292/292
f 128/292/292 131/290/290 127/291/291
f 158/297/297 162/305/305 161/296/296
f 161/296/296 162/305/305 159/306/306
f 161/296/296 159/306/306 157/304/304
f 157/304/304 159/306/306 155/307/307
f 157/304/304 155/307/307 153/303/303
f 153/303/303 155/307/307 151/308/308
f 153/303/303 151/308/308 149/302/302
f 149/302/302 151/308/308 147/314/314
f 149/302/302 147/315/315 145/301/301
f 145/316/316 147/309/309 148/310/310
f 145/317/317 148/310/310 146/300/300
f 146/300/300 148/310/310 152/311/311
f 146/300/300 152/311/311 150/299/299
f 150/299/299 152/311/311 156/312/312
f 150/299/299 156/312/312 154/298/298
f 154/298/298 156/312/312 160/313/313
f 154/298/298 160/313/313 158/297/297
f 158/297/297 160/313/313 162/305/305
f 161/318/318 157/319/319 158/326/326
f 158/326/326 157/319/319 154/325/325
f 154/325/325 157/319/319 153/320/320
f 154/325/325 153/320/320 150/324/324
f 150/324/324 153/320/320 149/321/321
f 150/324/324 149/321/321 146/323/323
f 146/323/323 149/321/321 145/322/322
f 78/328/328 82/336/336 81/327/327
f 81/327/327 82/336/336 79/337/337
f 81/327/327 79/337/337 77/335/335
f 77/335/335 79/337/337 75/338/338
f 77/335/335 75/338/338 73/334/334
f 73/334/334 75/338/338 71/339/339
f 73/334/334 71/339/339 69/333/333
f 69/333/333 71/339/339 67/345/345
f 69/333/333 67/346/346 65/332/332
f 65/347/347 67/340/340 68/341/341
f 65/348/348 68/341/341 66/331/331
f 66/331/331 68/341/341 72/342/342
f 66/331/331 72/342/342 70/330/330
f 70/330/330 72/342/342 76/343/343
f 70/330/330 76/343/343 74/329/329
f 74/329/329 76/343/343 80/344/344
f 74/329/329 80/344/344 78/328/328
f 78/328/328 80/344/344 82/336/336
f 81/349/349 77/350/350 78/357/357
f 78/357/357 77/350/350 74/356/356
f 74/356/356 77/350/350 73/351/351
f 74/356/356 73/351/351 70/355/355
f 70/355/355 73/351/351 69/352/352
f 70/355/355 69/352/352 66/354/354
f 66/354/354 69/352/352 65/353/353
f 60/359/359 64/367/367 63/358/358
f 63/358/358 64/367/367 61/368/368
f 63/358/358 61/368/368 59/366/366
f 59/366/366 61/368/368 57/369/369
f 59/366/366 57/369/369 55/365/365
f 55/365/365 57/369/369 53/370/370
f 55/365/365 53/370/370 51/364/364
f 51/364/364 53/370/370 49/376/376
f 51/364/364 49/377/377 47/363/363
f 47/378/378 49/371/371 50/372/372
f 47/379/379 50/372/372 48/362/362
f 48/362/362 50/372/372 54/373/373
f 48/362/362 54/373/373 52/361/361
f 52/361/361 54/373/373 58/374/374
f 52/361/361 58/374/374 56/360/360
f 56/360/360 58/374/374 62/375/375
f 56/360/360 62/375/375 60/359/359
f 60/359/359 62/375/375 64/367/367
f 63/380/380 59/381/381 60/388/388
f 60/388/388 59/381/381 56/387/387
f 56/387/387 59/381/381 55/382/382
f 56/387/387 55/382/382 52/386/386
f 52/386/386 55/382/382 51/383/383
f 52/386/386 51/383/383 48/385/385
f 48/385/385 51/383/383 47/384/384
f 6/390/390 3/391/391 204/389/389
f 204/389/389 3/391/391 201/392/392
f 141/401/401 144/393/393 208/430/430
f 208/430/430 144/393/393 142/394/394
f 208/430/430 142/394/394 138/395/395
f 208/430/430 138/395/395 76/413/413
f 76/413/413 138/395/395 134/396/396
f 76/413/413 134/396/396 80/412/412
f 80/412/412 134/396/396 130/397/397
f 80/412/412 130/397/397 82/411/411
f 82/411/411 130/397/397 129/398/398
f 82/411/411 129/398/398 79/419/419
f 79/419/419 129/398/398 133/399/399
f 79/419/419 133/399/399 75/418/418
f 75/418/418 133/399/399 137/400/400
f 75/418/418 137/400/400 156/404/404
f 156/404/404 137/400/400 208/430/430
f 156/404/404 208/430/430 207/431/431
f 137/400/400 141/401/401 208/430/430
f 159/410/410 162/402/402 207/431/431
f 207/431/431 162/402/402 160/403/403
f 207/431/431 160/403/403 156/404/404
f 75/418/418 156/404/404 58/422/422
f 58/422/422 156/404/404 152/405/405
f 58/422/422 152/405/405 62/421/421
f 62/421/421 152/405/405 148/406/406
f 62/421/421 148/406/406 64/420/420
f 64/420/420 148/406/406 147/407/407
f 64/420/420 147/407/407 61/428/428
f 61/428/428 147/407/407 151/408/408
f 61/428/428 151/408/408 57/427/427
f 57/427/427 151/408/408 155/409/409
f 57/427/427 155/409/409 207/431/431
f 207/431/431 155/409/409 159/410/410
f 208/430/430 76/413/413 10/429/429
f 10/429/429 76/413/413 72/414/414
f 10/429/429 72/414/414 68/415/415
f 68/415/415 67/416/416 10/429/429
f 10/429/429 67/416/416 71/417/417
f 10/429/429 71/417/417 54/423/423
f 54/423/423 71/417/417 58/422/422
f 58/422/422 71/417/417 75/418/418
f 10/429/429 54/423/423 9/432/432
f 9/432/432 54/423/423 50/424/424
f 9/432/432 50/424/424 49/425/425
f 49/425/425 53/426/426 9/432/432
f 9/432/432 53/426/426 57/427/427
f 9/432/432 57/427/427 207/431/431
f 3/434/434 4/435/435 201/433/433
f 201/433/433 4/435/435 202/436/436
f 2/437/437 200/438/438 4/440/440
f 4/440/440 200/438/438 202/439/439
f 199/441/441 1/442/442 207/444/444
f 207/444/444 1/442/442 9/443/443
f 172/446/446 44/476/476 164/445/445
f 164/445/445 44/476/476 43/477/477
f 164/445/445 43/477/477 42/458/458
f 42/458/458 43/477/477 34/457/457
f 34/457/457 43/477/477 35/478/478
f 34/457/457 35/478/478 26/456/456
f 26/456/456 35/478/478 27/479/479
f 26/456/456 27/479/479 18/455/455
f 18/455/455 27/479/479 19/480/480
f 18/455/455 19/480/480 11/454/454
f 11/454/454 19/480/480 12/472/472
f 11/454/454 12/472/472 1/484/484
f 1/484/484 12/472/472 2/483/483
f 2/483/483 12/472/472 20/473/473
f 2/483/483 20/473/473 28/474/474
f 44/476/476 172/446/446 36/475/475
f 36/475/475 172/446/446 180/447/447
f 36/475/475 180/447/447 200/482/482
f 200/482/482 180/447/447 188/448/448
f 200/482/482 188/448/448 196/449/449
f 200/482/482 196/449/449 199/481/481
f 199/481/481 196/449/449 195/450/450
f 199/481/481 195/450/450 194/467/467
f 194/467/467 195/450/450 186/466/466
f 186/466/466 195/450/450 187/451/451
f 186/466/466 187/451/451 178/465/465
f 178/465/465 187/451/451 179/452/452
f 178/465/465 179/452/452 170/464/464
f 170/464/464 179/452/452 171/453/453
f 170/464/464 171/453/453 163/463/463
f 163/463/463 171/453/453 164/445/445
f 163/463/463 164/445/445 42/458/458
f 42/458/458 41/459/459 163/463/463
f 163/463/463 41/459/459 169/471/471
f 169/471/471 41/459/459 33/460/460
f 169/471/471 33/460/460 177/470/470
f 177/470/470 33/460/460 1/484/484
f 177/470/470 1/484/484 199/481/481
f 33/460/460 25/461/461 1/484/484
f 1/484/484 25/461/461 17/462/462
f 1/484/484 17/462/462 11/454/454
f 194/467/467 193/468/468 199/481/481
f 199/481/481 193/468/468 185/469/469
f 199/481/481 185/469/469 177/470/470
f 28/474/474 36/475/475 2/483/483
f 2/483/483 36/475/475 200/482/482
# 208 vertices
# 484 texture params
# 484 normals
# 436 facets

# 1 groups
