ISO-10303-21;
HEADER;
/* Generated by software containing ST-Developer
 * from STEP Tools, Inc. (www.steptools.com) 
 */

FILE_DESCRIPTION(
/* description */ (''),
/* implementation_level */ '2;1');

FILE_NAME(
/* name */ 'Base - Top.stp',
/* time_stamp */ '2025-05-14T17:52:31-05:00',
/* author */ ('oscar'),
/* organization */ (''),
/* preprocessor_version */ 'ST-DEVELOPER v20.1',
/* originating_system */ 'Autodesk Inventor 2026',
/* authorisation */ '');

FILE_SCHEMA (('AUTOMOTIVE_DESIGN { 1 0 10303 214 3 1 1 }'));
ENDSEC;

DATA;
#10=MECHANICAL_DESIGN_GEOMETRIC_PRESENTATION_REPRESENTATION('',(#13),#1666);
#11=SHAPE_REPRESENTATION_RELATIONSHIP('SRR','None',#1673,#12);
#12=ADVANCED_BREP_SHAPE_REPRESENTATION('',(#14),#1665);
#13=STYLED_ITEM('',(#1682),#14);
#14=MANIFOLD_SOLID_BREP('S\X\F3lido2',#961);
#15=FACE_BOUND('',#152,.T.);
#16=FACE_BOUND('',#153,.T.);
#17=FACE_BOUND('',#156,.T.);
#18=FACE_BOUND('',#157,.T.);
#19=FACE_BOUND('',#164,.T.);
#20=FACE_BOUND('',#165,.T.);
#21=FACE_BOUND('',#166,.T.);
#22=FACE_BOUND('',#167,.T.);
#23=FACE_BOUND('',#169,.T.);
#24=FACE_BOUND('',#184,.T.);
#25=FACE_BOUND('',#185,.T.);
#26=FACE_BOUND('',#186,.T.);
#27=FACE_BOUND('',#187,.T.);
#28=FACE_BOUND('',#224,.T.);
#29=FACE_BOUND('',#225,.T.);
#30=FACE_BOUND('',#226,.T.);
#31=FACE_BOUND('',#227,.T.);
#32=FACE_BOUND('',#228,.T.);
#33=FACE_BOUND('',#229,.T.);
#34=FACE_BOUND('',#230,.T.);
#35=FACE_BOUND('',#231,.T.);
#36=FACE_BOUND('',#232,.T.);
#37=FACE_BOUND('',#233,.T.);
#38=FACE_BOUND('',#234,.T.);
#39=FACE_BOUND('',#235,.T.);
#40=FACE_BOUND('',#236,.T.);
#41=FACE_BOUND('',#237,.T.);
#42=FACE_BOUND('',#238,.T.);
#43=FACE_BOUND('',#239,.T.);
#44=FACE_BOUND('',#240,.T.);
#45=FACE_BOUND('',#241,.T.);
#46=FACE_BOUND('',#242,.T.);
#47=FACE_BOUND('',#243,.T.);
#48=PLANE('',#990);
#49=PLANE('',#991);
#50=PLANE('',#992);
#51=PLANE('',#993);
#52=PLANE('',#994);
#53=PLANE('',#1007);
#54=PLANE('',#1008);
#55=PLANE('',#1009);
#56=PLANE('',#1010);
#57=PLANE('',#1011);
#58=PLANE('',#1012);
#59=PLANE('',#1016);
#60=PLANE('',#1020);
#61=PLANE('',#1024);
#62=PLANE('',#1028);
#63=PLANE('',#1029);
#64=PLANE('',#1030);
#65=PLANE('',#1031);
#66=PLANE('',#1035);
#67=PLANE('',#1039);
#68=PLANE('',#1043);
#69=PLANE('',#1047);
#70=PLANE('',#1051);
#71=PLANE('',#1055);
#72=PLANE('',#1059);
#73=PLANE('',#1063);
#74=PLANE('',#1067);
#75=PLANE('',#1071);
#76=PLANE('',#1075);
#77=PLANE('',#1079);
#78=PLANE('',#1083);
#79=PLANE('',#1087);
#80=PLANE('',#1091);
#81=PLANE('',#1095);
#82=PLANE('',#1096);
#83=PLANE('',#1097);
#84=PLANE('',#1098);
#85=FACE_OUTER_BOUND('',#148,.T.);
#86=FACE_OUTER_BOUND('',#149,.T.);
#87=FACE_OUTER_BOUND('',#150,.T.);
#88=FACE_OUTER_BOUND('',#151,.T.);
#89=FACE_OUTER_BOUND('',#154,.T.);
#90=FACE_OUTER_BOUND('',#155,.T.);
#91=FACE_OUTER_BOUND('',#158,.T.);
#92=FACE_OUTER_BOUND('',#159,.T.);
#93=FACE_OUTER_BOUND('',#160,.T.);
#94=FACE_OUTER_BOUND('',#161,.T.);
#95=FACE_OUTER_BOUND('',#162,.T.);
#96=FACE_OUTER_BOUND('',#163,.T.);
#97=FACE_OUTER_BOUND('',#168,.T.);
#98=FACE_OUTER_BOUND('',#170,.T.);
#99=FACE_OUTER_BOUND('',#171,.T.);
#100=FACE_OUTER_BOUND('',#172,.T.);
#101=FACE_OUTER_BOUND('',#173,.T.);
#102=FACE_OUTER_BOUND('',#174,.T.);
#103=FACE_OUTER_BOUND('',#175,.T.);
#104=FACE_OUTER_BOUND('',#176,.T.);
#105=FACE_OUTER_BOUND('',#177,.T.);
#106=FACE_OUTER_BOUND('',#178,.T.);
#107=FACE_OUTER_BOUND('',#179,.T.);
#108=FACE_OUTER_BOUND('',#180,.T.);
#109=FACE_OUTER_BOUND('',#181,.T.);
#110=FACE_OUTER_BOUND('',#182,.T.);
#111=FACE_OUTER_BOUND('',#183,.T.);
#112=FACE_OUTER_BOUND('',#188,.T.);
#113=FACE_OUTER_BOUND('',#189,.T.);
#114=FACE_OUTER_BOUND('',#190,.T.);
#115=FACE_OUTER_BOUND('',#191,.T.);
#116=FACE_OUTER_BOUND('',#192,.T.);
#117=FACE_OUTER_BOUND('',#193,.T.);
#118=FACE_OUTER_BOUND('',#194,.T.);
#119=FACE_OUTER_BOUND('',#195,.T.);
#120=FACE_OUTER_BOUND('',#196,.T.);
#121=FACE_OUTER_BOUND('',#197,.T.);
#122=FACE_OUTER_BOUND('',#198,.T.);
#123=FACE_OUTER_BOUND('',#199,.T.);
#124=FACE_OUTER_BOUND('',#200,.T.);
#125=FACE_OUTER_BOUND('',#201,.T.);
#126=FACE_OUTER_BOUND('',#202,.T.);
#127=FACE_OUTER_BOUND('',#203,.T.);
#128=FACE_OUTER_BOUND('',#204,.T.);
#129=FACE_OUTER_BOUND('',#205,.T.);
#130=FACE_OUTER_BOUND('',#206,.T.);
#131=FACE_OUTER_BOUND('',#207,.T.);
#132=FACE_OUTER_BOUND('',#208,.T.);
#133=FACE_OUTER_BOUND('',#209,.T.);
#134=FACE_OUTER_BOUND('',#210,.T.);
#135=FACE_OUTER_BOUND('',#211,.T.);
#136=FACE_OUTER_BOUND('',#212,.T.);
#137=FACE_OUTER_BOUND('',#213,.T.);
#138=FACE_OUTER_BOUND('',#214,.T.);
#139=FACE_OUTER_BOUND('',#215,.T.);
#140=FACE_OUTER_BOUND('',#216,.T.);
#141=FACE_OUTER_BOUND('',#217,.T.);
#142=FACE_OUTER_BOUND('',#218,.T.);
#143=FACE_OUTER_BOUND('',#219,.T.);
#144=FACE_OUTER_BOUND('',#220,.T.);
#145=FACE_OUTER_BOUND('',#221,.T.);
#146=FACE_OUTER_BOUND('',#222,.T.);
#147=FACE_OUTER_BOUND('',#223,.T.);
#148=EDGE_LOOP('',(#632,#633,#634,#635));
#149=EDGE_LOOP('',(#636,#637,#638,#639));
#150=EDGE_LOOP('',(#640,#641,#642,#643));
#151=EDGE_LOOP('',(#644,#645,#646,#647));
#152=EDGE_LOOP('',(#648));
#153=EDGE_LOOP('',(#649));
#154=EDGE_LOOP('',(#650,#651,#652,#653));
#155=EDGE_LOOP('',(#654,#655,#656,#657));
#156=EDGE_LOOP('',(#658));
#157=EDGE_LOOP('',(#659));
#158=EDGE_LOOP('',(#660,#661,#662,#663));
#159=EDGE_LOOP('',(#664,#665,#666,#667));
#160=EDGE_LOOP('',(#668,#669,#670,#671));
#161=EDGE_LOOP('',(#672,#673,#674,#675));
#162=EDGE_LOOP('',(#676,#677,#678,#679));
#163=EDGE_LOOP('',(#680,#681,#682,#683));
#164=EDGE_LOOP('',(#684));
#165=EDGE_LOOP('',(#685));
#166=EDGE_LOOP('',(#686));
#167=EDGE_LOOP('',(#687));
#168=EDGE_LOOP('',(#688,#689,#690,#691));
#169=EDGE_LOOP('',(#692,#693,#694,#695));
#170=EDGE_LOOP('',(#696,#697,#698,#699));
#171=EDGE_LOOP('',(#700,#701,#702,#703,#704,#705,#706,#707,#708,#709));
#172=EDGE_LOOP('',(#710,#711,#712,#713));
#173=EDGE_LOOP('',(#714,#715,#716,#717,#718,#719,#720,#721,#722,#723));
#174=EDGE_LOOP('',(#724,#725,#726,#727));
#175=EDGE_LOOP('',(#728));
#176=EDGE_LOOP('',(#729,#730,#731,#732));
#177=EDGE_LOOP('',(#733));
#178=EDGE_LOOP('',(#734,#735,#736,#737));
#179=EDGE_LOOP('',(#738));
#180=EDGE_LOOP('',(#739,#740,#741,#742));
#181=EDGE_LOOP('',(#743));
#182=EDGE_LOOP('',(#744,#745,#746,#747));
#183=EDGE_LOOP('',(#748,#749,#750,#751));
#184=EDGE_LOOP('',(#752));
#185=EDGE_LOOP('',(#753));
#186=EDGE_LOOP('',(#754));
#187=EDGE_LOOP('',(#755));
#188=EDGE_LOOP('',(#756,#757,#758,#759));
#189=EDGE_LOOP('',(#760,#761,#762,#763));
#190=EDGE_LOOP('',(#764));
#191=EDGE_LOOP('',(#765,#766,#767,#768));
#192=EDGE_LOOP('',(#769));
#193=EDGE_LOOP('',(#770,#771,#772,#773));
#194=EDGE_LOOP('',(#774));
#195=EDGE_LOOP('',(#775,#776,#777,#778));
#196=EDGE_LOOP('',(#779));
#197=EDGE_LOOP('',(#780,#781,#782,#783));
#198=EDGE_LOOP('',(#784));
#199=EDGE_LOOP('',(#785,#786,#787,#788));
#200=EDGE_LOOP('',(#789));
#201=EDGE_LOOP('',(#790,#791,#792,#793));
#202=EDGE_LOOP('',(#794));
#203=EDGE_LOOP('',(#795,#796,#797,#798));
#204=EDGE_LOOP('',(#799));
#205=EDGE_LOOP('',(#800,#801,#802,#803));
#206=EDGE_LOOP('',(#804));
#207=EDGE_LOOP('',(#805,#806,#807,#808));
#208=EDGE_LOOP('',(#809));
#209=EDGE_LOOP('',(#810,#811,#812,#813));
#210=EDGE_LOOP('',(#814));
#211=EDGE_LOOP('',(#815,#816,#817,#818));
#212=EDGE_LOOP('',(#819));
#213=EDGE_LOOP('',(#820,#821,#822,#823));
#214=EDGE_LOOP('',(#824));
#215=EDGE_LOOP('',(#825,#826,#827,#828));
#216=EDGE_LOOP('',(#829));
#217=EDGE_LOOP('',(#830,#831,#832,#833));
#218=EDGE_LOOP('',(#834));
#219=EDGE_LOOP('',(#835,#836,#837,#838));
#220=EDGE_LOOP('',(#839));
#221=EDGE_LOOP('',(#840,#841,#842,#843));
#222=EDGE_LOOP('',(#844,#845,#846,#847));
#223=EDGE_LOOP('',(#848,#849,#850,#851));
#224=EDGE_LOOP('',(#852));
#225=EDGE_LOOP('',(#853));
#226=EDGE_LOOP('',(#854));
#227=EDGE_LOOP('',(#855));
#228=EDGE_LOOP('',(#856));
#229=EDGE_LOOP('',(#857));
#230=EDGE_LOOP('',(#858));
#231=EDGE_LOOP('',(#859));
#232=EDGE_LOOP('',(#860));
#233=EDGE_LOOP('',(#861));
#234=EDGE_LOOP('',(#862));
#235=EDGE_LOOP('',(#863));
#236=EDGE_LOOP('',(#864));
#237=EDGE_LOOP('',(#865));
#238=EDGE_LOOP('',(#866));
#239=EDGE_LOOP('',(#867));
#240=EDGE_LOOP('',(#868));
#241=EDGE_LOOP('',(#869));
#242=EDGE_LOOP('',(#870));
#243=EDGE_LOOP('',(#871));
#244=LINE('',#1404,#312);
#245=LINE('',#1410,#313);
#246=LINE('',#1415,#314);
#247=LINE('',#1417,#315);
#248=LINE('',#1419,#316);
#249=LINE('',#1420,#317);
#250=LINE('',#1423,#318);
#251=LINE('',#1425,#319);
#252=LINE('',#1426,#320);
#253=LINE('',#1429,#321);
#254=LINE('',#1431,#322);
#255=LINE('',#1432,#323);
#256=LINE('',#1434,#324);
#257=LINE('',#1435,#325);
#258=LINE('',#1441,#326);
#259=LINE('',#1447,#327);
#260=LINE('',#1453,#328);
#261=LINE('',#1459,#329);
#262=LINE('',#1464,#330);
#263=LINE('',#1466,#331);
#264=LINE('',#1468,#332);
#265=LINE('',#1469,#333);
#266=LINE('',#1472,#334);
#267=LINE('',#1474,#335);
#268=LINE('',#1475,#336);
#269=LINE('',#1478,#337);
#270=LINE('',#1480,#338);
#271=LINE('',#1481,#339);
#272=LINE('',#1484,#340);
#273=LINE('',#1486,#341);
#274=LINE('',#1488,#342);
#275=LINE('',#1490,#343);
#276=LINE('',#1492,#344);
#277=LINE('',#1494,#345);
#278=LINE('',#1495,#346);
#279=LINE('',#1498,#347);
#280=LINE('',#1499,#348);
#281=LINE('',#1502,#349);
#282=LINE('',#1504,#350);
#283=LINE('',#1506,#351);
#284=LINE('',#1508,#352);
#285=LINE('',#1510,#353);
#286=LINE('',#1511,#354);
#287=LINE('',#1516,#355);
#288=LINE('',#1523,#356);
#289=LINE('',#1530,#357);
#290=LINE('',#1537,#358);
#291=LINE('',#1541,#359);
#292=LINE('',#1543,#360);
#293=LINE('',#1545,#361);
#294=LINE('',#1550,#362);
#295=LINE('',#1557,#363);
#296=LINE('',#1564,#364);
#297=LINE('',#1571,#365);
#298=LINE('',#1578,#366);
#299=LINE('',#1585,#367);
#300=LINE('',#1592,#368);
#301=LINE('',#1599,#369);
#302=LINE('',#1606,#370);
#303=LINE('',#1613,#371);
#304=LINE('',#1620,#372);
#305=LINE('',#1627,#373);
#306=LINE('',#1634,#374);
#307=LINE('',#1641,#375);
#308=LINE('',#1648,#376);
#309=LINE('',#1655,#377);
#310=LINE('',#1659,#378);
#311=LINE('',#1661,#379);
#312=VECTOR('',#1105,1.5);
#313=VECTOR('',#1112,1.5);
#314=VECTOR('',#1117,10.);
#315=VECTOR('',#1118,10.);
#316=VECTOR('',#1119,10.);
#317=VECTOR('',#1120,10.);
#318=VECTOR('',#1123,10.);
#319=VECTOR('',#1124,10.);
#320=VECTOR('',#1125,10.);
#321=VECTOR('',#1128,10.);
#322=VECTOR('',#1129,10.);
#323=VECTOR('',#1130,10.);
#324=VECTOR('',#1133,10.);
#325=VECTOR('',#1134,10.);
#326=VECTOR('',#1141,1.5);
#327=VECTOR('',#1148,1.50000000000001);
#328=VECTOR('',#1155,1.5);
#329=VECTOR('',#1162,1.49999999999999);
#330=VECTOR('',#1167,10.);
#331=VECTOR('',#1168,10.);
#332=VECTOR('',#1169,10.);
#333=VECTOR('',#1170,10.);
#334=VECTOR('',#1173,10.);
#335=VECTOR('',#1174,10.);
#336=VECTOR('',#1175,10.);
#337=VECTOR('',#1178,10.);
#338=VECTOR('',#1179,10.);
#339=VECTOR('',#1180,10.);
#340=VECTOR('',#1183,10.);
#341=VECTOR('',#1184,10.);
#342=VECTOR('',#1185,10.);
#343=VECTOR('',#1186,10.);
#344=VECTOR('',#1187,10.);
#345=VECTOR('',#1188,10.);
#346=VECTOR('',#1189,10.);
#347=VECTOR('',#1192,10.);
#348=VECTOR('',#1193,10.);
#349=VECTOR('',#1196,10.);
#350=VECTOR('',#1197,10.);
#351=VECTOR('',#1198,10.);
#352=VECTOR('',#1199,10.);
#353=VECTOR('',#1200,10.);
#354=VECTOR('',#1201,10.);
#355=VECTOR('',#1206,1.5);
#356=VECTOR('',#1215,1.5);
#357=VECTOR('',#1224,1.5);
#358=VECTOR('',#1233,1.5);
#359=VECTOR('',#1240,10.);
#360=VECTOR('',#1243,10.);
#361=VECTOR('',#1246,10.);
#362=VECTOR('',#1251,1.5);
#363=VECTOR('',#1260,1.50000000000001);
#364=VECTOR('',#1269,1.5);
#365=VECTOR('',#1278,1.5);
#366=VECTOR('',#1287,1.5);
#367=VECTOR('',#1296,1.49999999999999);
#368=VECTOR('',#1305,1.50000000000001);
#369=VECTOR('',#1314,1.5);
#370=VECTOR('',#1323,1.5);
#371=VECTOR('',#1332,1.49999999999999);
#372=VECTOR('',#1341,1.49999999999999);
#373=VECTOR('',#1350,1.5);
#374=VECTOR('',#1359,1.49999999999999);
#375=VECTOR('',#1368,1.5);
#376=VECTOR('',#1377,1.5);
#377=VECTOR('',#1386,1.5);
#378=VECTOR('',#1393,10.);
#379=VECTOR('',#1396,10.);
#380=CIRCLE('',#985,1.5);
#381=CIRCLE('',#986,1.5);
#382=CIRCLE('',#988,1.5);
#383=CIRCLE('',#989,1.5);
#384=CIRCLE('',#996,1.5);
#385=CIRCLE('',#997,1.5);
#386=CIRCLE('',#999,1.50000000000001);
#387=CIRCLE('',#1000,1.50000000000001);
#388=CIRCLE('',#1002,1.5);
#389=CIRCLE('',#1003,1.5);
#390=CIRCLE('',#1005,1.49999999999999);
#391=CIRCLE('',#1006,1.49999999999999);
#392=CIRCLE('',#1014,1.5);
#393=CIRCLE('',#1015,1.5);
#394=CIRCLE('',#1018,1.5);
#395=CIRCLE('',#1019,1.5);
#396=CIRCLE('',#1022,1.5);
#397=CIRCLE('',#1023,1.5);
#398=CIRCLE('',#1026,1.5);
#399=CIRCLE('',#1027,1.5);
#400=CIRCLE('',#1033,1.5);
#401=CIRCLE('',#1034,1.5);
#402=CIRCLE('',#1037,1.50000000000001);
#403=CIRCLE('',#1038,1.50000000000001);
#404=CIRCLE('',#1041,1.5);
#405=CIRCLE('',#1042,1.5);
#406=CIRCLE('',#1045,1.5);
#407=CIRCLE('',#1046,1.5);
#408=CIRCLE('',#1049,1.5);
#409=CIRCLE('',#1050,1.5);
#410=CIRCLE('',#1053,1.49999999999999);
#411=CIRCLE('',#1054,1.49999999999999);
#412=CIRCLE('',#1057,1.50000000000001);
#413=CIRCLE('',#1058,1.50000000000001);
#414=CIRCLE('',#1061,1.5);
#415=CIRCLE('',#1062,1.5);
#416=CIRCLE('',#1065,1.5);
#417=CIRCLE('',#1066,1.5);
#418=CIRCLE('',#1069,1.49999999999999);
#419=CIRCLE('',#1070,1.49999999999999);
#420=CIRCLE('',#1073,1.49999999999999);
#421=CIRCLE('',#1074,1.49999999999999);
#422=CIRCLE('',#1077,1.5);
#423=CIRCLE('',#1078,1.5);
#424=CIRCLE('',#1081,1.49999999999999);
#425=CIRCLE('',#1082,1.49999999999999);
#426=CIRCLE('',#1085,1.5);
#427=CIRCLE('',#1086,1.5);
#428=CIRCLE('',#1089,1.5);
#429=CIRCLE('',#1090,1.5);
#430=CIRCLE('',#1093,1.5);
#431=CIRCLE('',#1094,1.5);
#432=VERTEX_POINT('',#1401);
#433=VERTEX_POINT('',#1403);
#434=VERTEX_POINT('',#1407);
#435=VERTEX_POINT('',#1409);
#436=VERTEX_POINT('',#1413);
#437=VERTEX_POINT('',#1414);
#438=VERTEX_POINT('',#1416);
#439=VERTEX_POINT('',#1418);
#440=VERTEX_POINT('',#1422);
#441=VERTEX_POINT('',#1424);
#442=VERTEX_POINT('',#1428);
#443=VERTEX_POINT('',#1430);
#444=VERTEX_POINT('',#1438);
#445=VERTEX_POINT('',#1440);
#446=VERTEX_POINT('',#1444);
#447=VERTEX_POINT('',#1446);
#448=VERTEX_POINT('',#1450);
#449=VERTEX_POINT('',#1452);
#450=VERTEX_POINT('',#1456);
#451=VERTEX_POINT('',#1458);
#452=VERTEX_POINT('',#1462);
#453=VERTEX_POINT('',#1463);
#454=VERTEX_POINT('',#1465);
#455=VERTEX_POINT('',#1467);
#456=VERTEX_POINT('',#1471);
#457=VERTEX_POINT('',#1473);
#458=VERTEX_POINT('',#1477);
#459=VERTEX_POINT('',#1479);
#460=VERTEX_POINT('',#1483);
#461=VERTEX_POINT('',#1485);
#462=VERTEX_POINT('',#1487);
#463=VERTEX_POINT('',#1489);
#464=VERTEX_POINT('',#1491);
#465=VERTEX_POINT('',#1493);
#466=VERTEX_POINT('',#1497);
#467=VERTEX_POINT('',#1501);
#468=VERTEX_POINT('',#1503);
#469=VERTEX_POINT('',#1505);
#470=VERTEX_POINT('',#1507);
#471=VERTEX_POINT('',#1509);
#472=VERTEX_POINT('',#1513);
#473=VERTEX_POINT('',#1515);
#474=VERTEX_POINT('',#1520);
#475=VERTEX_POINT('',#1522);
#476=VERTEX_POINT('',#1527);
#477=VERTEX_POINT('',#1529);
#478=VERTEX_POINT('',#1534);
#479=VERTEX_POINT('',#1536);
#480=VERTEX_POINT('',#1547);
#481=VERTEX_POINT('',#1549);
#482=VERTEX_POINT('',#1554);
#483=VERTEX_POINT('',#1556);
#484=VERTEX_POINT('',#1561);
#485=VERTEX_POINT('',#1563);
#486=VERTEX_POINT('',#1568);
#487=VERTEX_POINT('',#1570);
#488=VERTEX_POINT('',#1575);
#489=VERTEX_POINT('',#1577);
#490=VERTEX_POINT('',#1582);
#491=VERTEX_POINT('',#1584);
#492=VERTEX_POINT('',#1589);
#493=VERTEX_POINT('',#1591);
#494=VERTEX_POINT('',#1596);
#495=VERTEX_POINT('',#1598);
#496=VERTEX_POINT('',#1603);
#497=VERTEX_POINT('',#1605);
#498=VERTEX_POINT('',#1610);
#499=VERTEX_POINT('',#1612);
#500=VERTEX_POINT('',#1617);
#501=VERTEX_POINT('',#1619);
#502=VERTEX_POINT('',#1624);
#503=VERTEX_POINT('',#1626);
#504=VERTEX_POINT('',#1631);
#505=VERTEX_POINT('',#1633);
#506=VERTEX_POINT('',#1638);
#507=VERTEX_POINT('',#1640);
#508=VERTEX_POINT('',#1645);
#509=VERTEX_POINT('',#1647);
#510=VERTEX_POINT('',#1652);
#511=VERTEX_POINT('',#1654);
#512=EDGE_CURVE('',#432,#432,#380,.T.);
#513=EDGE_CURVE('',#432,#433,#244,.T.);
#514=EDGE_CURVE('',#433,#433,#381,.T.);
#515=EDGE_CURVE('',#434,#434,#382,.T.);
#516=EDGE_CURVE('',#434,#435,#245,.T.);
#517=EDGE_CURVE('',#435,#435,#383,.T.);
#518=EDGE_CURVE('',#436,#437,#246,.T.);
#519=EDGE_CURVE('',#436,#438,#247,.T.);
#520=EDGE_CURVE('',#439,#438,#248,.T.);
#521=EDGE_CURVE('',#437,#439,#249,.T.);
#522=EDGE_CURVE('',#437,#440,#250,.T.);
#523=EDGE_CURVE('',#441,#439,#251,.T.);
#524=EDGE_CURVE('',#440,#441,#252,.T.);
#525=EDGE_CURVE('',#440,#442,#253,.T.);
#526=EDGE_CURVE('',#443,#441,#254,.T.);
#527=EDGE_CURVE('',#442,#443,#255,.T.);
#528=EDGE_CURVE('',#442,#436,#256,.T.);
#529=EDGE_CURVE('',#438,#443,#257,.T.);
#530=EDGE_CURVE('',#444,#444,#384,.T.);
#531=EDGE_CURVE('',#444,#445,#258,.T.);
#532=EDGE_CURVE('',#445,#445,#385,.T.);
#533=EDGE_CURVE('',#446,#446,#386,.T.);
#534=EDGE_CURVE('',#446,#447,#259,.T.);
#535=EDGE_CURVE('',#447,#447,#387,.T.);
#536=EDGE_CURVE('',#448,#448,#388,.T.);
#537=EDGE_CURVE('',#448,#449,#260,.T.);
#538=EDGE_CURVE('',#449,#449,#389,.T.);
#539=EDGE_CURVE('',#450,#450,#390,.T.);
#540=EDGE_CURVE('',#450,#451,#261,.T.);
#541=EDGE_CURVE('',#451,#451,#391,.T.);
#542=EDGE_CURVE('',#452,#453,#262,.T.);
#543=EDGE_CURVE('',#452,#454,#263,.T.);
#544=EDGE_CURVE('',#455,#454,#264,.T.);
#545=EDGE_CURVE('',#453,#455,#265,.T.);
#546=EDGE_CURVE('',#456,#452,#266,.T.);
#547=EDGE_CURVE('',#456,#457,#267,.T.);
#548=EDGE_CURVE('',#454,#457,#268,.T.);
#549=EDGE_CURVE('',#458,#456,#269,.T.);
#550=EDGE_CURVE('',#459,#458,#270,.T.);
#551=EDGE_CURVE('',#457,#459,#271,.T.);
#552=EDGE_CURVE('',#459,#460,#272,.T.);
#553=EDGE_CURVE('',#461,#460,#273,.T.);
#554=EDGE_CURVE('',#462,#461,#274,.T.);
#555=EDGE_CURVE('',#462,#463,#275,.T.);
#556=EDGE_CURVE('',#463,#464,#276,.T.);
#557=EDGE_CURVE('',#465,#464,#277,.T.);
#558=EDGE_CURVE('',#465,#455,#278,.T.);
#559=EDGE_CURVE('',#466,#458,#279,.T.);
#560=EDGE_CURVE('',#460,#466,#280,.T.);
#561=EDGE_CURVE('',#453,#467,#281,.T.);
#562=EDGE_CURVE('',#468,#467,#282,.T.);
#563=EDGE_CURVE('',#469,#468,#283,.T.);
#564=EDGE_CURVE('',#469,#470,#284,.T.);
#565=EDGE_CURVE('',#470,#471,#285,.T.);
#566=EDGE_CURVE('',#466,#471,#286,.T.);
#567=EDGE_CURVE('',#472,#472,#392,.T.);
#568=EDGE_CURVE('',#472,#473,#287,.T.);
#569=EDGE_CURVE('',#473,#473,#393,.T.);
#570=EDGE_CURVE('',#474,#474,#394,.T.);
#571=EDGE_CURVE('',#474,#475,#288,.T.);
#572=EDGE_CURVE('',#475,#475,#395,.T.);
#573=EDGE_CURVE('',#476,#476,#396,.T.);
#574=EDGE_CURVE('',#476,#477,#289,.T.);
#575=EDGE_CURVE('',#477,#477,#397,.T.);
#576=EDGE_CURVE('',#478,#478,#398,.T.);
#577=EDGE_CURVE('',#478,#479,#290,.T.);
#578=EDGE_CURVE('',#479,#479,#399,.T.);
#579=EDGE_CURVE('',#467,#465,#291,.T.);
#580=EDGE_CURVE('',#471,#461,#292,.T.);
#581=EDGE_CURVE('',#464,#468,#293,.T.);
#582=EDGE_CURVE('',#480,#480,#400,.T.);
#583=EDGE_CURVE('',#480,#481,#294,.T.);
#584=EDGE_CURVE('',#481,#481,#401,.T.);
#585=EDGE_CURVE('',#482,#482,#402,.T.);
#586=EDGE_CURVE('',#482,#483,#295,.T.);
#587=EDGE_CURVE('',#483,#483,#403,.T.);
#588=EDGE_CURVE('',#484,#484,#404,.T.);
#589=EDGE_CURVE('',#484,#485,#296,.T.);
#590=EDGE_CURVE('',#485,#485,#405,.T.);
#591=EDGE_CURVE('',#486,#486,#406,.T.);
#592=EDGE_CURVE('',#486,#487,#297,.T.);
#593=EDGE_CURVE('',#487,#487,#407,.T.);
#594=EDGE_CURVE('',#488,#488,#408,.T.);
#595=EDGE_CURVE('',#488,#489,#298,.T.);
#596=EDGE_CURVE('',#489,#489,#409,.T.);
#597=EDGE_CURVE('',#490,#490,#410,.T.);
#598=EDGE_CURVE('',#490,#491,#299,.T.);
#599=EDGE_CURVE('',#491,#491,#411,.T.);
#600=EDGE_CURVE('',#492,#492,#412,.T.);
#601=EDGE_CURVE('',#492,#493,#300,.T.);
#602=EDGE_CURVE('',#493,#493,#413,.T.);
#603=EDGE_CURVE('',#494,#494,#414,.T.);
#604=EDGE_CURVE('',#494,#495,#301,.T.);
#605=EDGE_CURVE('',#495,#495,#415,.T.);
#606=EDGE_CURVE('',#496,#496,#416,.T.);
#607=EDGE_CURVE('',#496,#497,#302,.T.);
#608=EDGE_CURVE('',#497,#497,#417,.T.);
#609=EDGE_CURVE('',#498,#498,#418,.T.);
#610=EDGE_CURVE('',#498,#499,#303,.T.);
#611=EDGE_CURVE('',#499,#499,#419,.T.);
#612=EDGE_CURVE('',#500,#500,#420,.T.);
#613=EDGE_CURVE('',#500,#501,#304,.T.);
#614=EDGE_CURVE('',#501,#501,#421,.T.);
#615=EDGE_CURVE('',#502,#502,#422,.T.);
#616=EDGE_CURVE('',#502,#503,#305,.T.);
#617=EDGE_CURVE('',#503,#503,#423,.T.);
#618=EDGE_CURVE('',#504,#504,#424,.T.);
#619=EDGE_CURVE('',#504,#505,#306,.T.);
#620=EDGE_CURVE('',#505,#505,#425,.T.);
#621=EDGE_CURVE('',#506,#506,#426,.T.);
#622=EDGE_CURVE('',#506,#507,#307,.T.);
#623=EDGE_CURVE('',#507,#507,#427,.T.);
#624=EDGE_CURVE('',#508,#508,#428,.T.);
#625=EDGE_CURVE('',#508,#509,#308,.T.);
#626=EDGE_CURVE('',#509,#509,#429,.T.);
#627=EDGE_CURVE('',#510,#510,#430,.T.);
#628=EDGE_CURVE('',#510,#511,#309,.T.);
#629=EDGE_CURVE('',#511,#511,#431,.T.);
#630=EDGE_CURVE('',#463,#469,#310,.T.);
#631=EDGE_CURVE('',#470,#462,#311,.T.);
#632=ORIENTED_EDGE('',*,*,#512,.F.);
#633=ORIENTED_EDGE('',*,*,#513,.T.);
#634=ORIENTED_EDGE('',*,*,#514,.F.);
#635=ORIENTED_EDGE('',*,*,#513,.F.);
#636=ORIENTED_EDGE('',*,*,#515,.F.);
#637=ORIENTED_EDGE('',*,*,#516,.T.);
#638=ORIENTED_EDGE('',*,*,#517,.F.);
#639=ORIENTED_EDGE('',*,*,#516,.F.);
#640=ORIENTED_EDGE('',*,*,#518,.F.);
#641=ORIENTED_EDGE('',*,*,#519,.T.);
#642=ORIENTED_EDGE('',*,*,#520,.F.);
#643=ORIENTED_EDGE('',*,*,#521,.F.);
#644=ORIENTED_EDGE('',*,*,#522,.F.);
#645=ORIENTED_EDGE('',*,*,#521,.T.);
#646=ORIENTED_EDGE('',*,*,#523,.F.);
#647=ORIENTED_EDGE('',*,*,#524,.F.);
#648=ORIENTED_EDGE('',*,*,#512,.T.);
#649=ORIENTED_EDGE('',*,*,#515,.T.);
#650=ORIENTED_EDGE('',*,*,#525,.F.);
#651=ORIENTED_EDGE('',*,*,#524,.T.);
#652=ORIENTED_EDGE('',*,*,#526,.F.);
#653=ORIENTED_EDGE('',*,*,#527,.F.);
#654=ORIENTED_EDGE('',*,*,#528,.F.);
#655=ORIENTED_EDGE('',*,*,#527,.T.);
#656=ORIENTED_EDGE('',*,*,#529,.F.);
#657=ORIENTED_EDGE('',*,*,#519,.F.);
#658=ORIENTED_EDGE('',*,*,#514,.T.);
#659=ORIENTED_EDGE('',*,*,#517,.T.);
#660=ORIENTED_EDGE('',*,*,#529,.T.);
#661=ORIENTED_EDGE('',*,*,#526,.T.);
#662=ORIENTED_EDGE('',*,*,#523,.T.);
#663=ORIENTED_EDGE('',*,*,#520,.T.);
#664=ORIENTED_EDGE('',*,*,#530,.F.);
#665=ORIENTED_EDGE('',*,*,#531,.T.);
#666=ORIENTED_EDGE('',*,*,#532,.F.);
#667=ORIENTED_EDGE('',*,*,#531,.F.);
#668=ORIENTED_EDGE('',*,*,#533,.F.);
#669=ORIENTED_EDGE('',*,*,#534,.T.);
#670=ORIENTED_EDGE('',*,*,#535,.F.);
#671=ORIENTED_EDGE('',*,*,#534,.F.);
#672=ORIENTED_EDGE('',*,*,#536,.F.);
#673=ORIENTED_EDGE('',*,*,#537,.T.);
#674=ORIENTED_EDGE('',*,*,#538,.F.);
#675=ORIENTED_EDGE('',*,*,#537,.F.);
#676=ORIENTED_EDGE('',*,*,#539,.F.);
#677=ORIENTED_EDGE('',*,*,#540,.T.);
#678=ORIENTED_EDGE('',*,*,#541,.F.);
#679=ORIENTED_EDGE('',*,*,#540,.F.);
#680=ORIENTED_EDGE('',*,*,#542,.F.);
#681=ORIENTED_EDGE('',*,*,#543,.T.);
#682=ORIENTED_EDGE('',*,*,#544,.F.);
#683=ORIENTED_EDGE('',*,*,#545,.F.);
#684=ORIENTED_EDGE('',*,*,#530,.T.);
#685=ORIENTED_EDGE('',*,*,#533,.T.);
#686=ORIENTED_EDGE('',*,*,#536,.T.);
#687=ORIENTED_EDGE('',*,*,#539,.T.);
#688=ORIENTED_EDGE('',*,*,#546,.F.);
#689=ORIENTED_EDGE('',*,*,#547,.T.);
#690=ORIENTED_EDGE('',*,*,#548,.F.);
#691=ORIENTED_EDGE('',*,*,#543,.F.);
#692=ORIENTED_EDGE('',*,*,#518,.T.);
#693=ORIENTED_EDGE('',*,*,#522,.T.);
#694=ORIENTED_EDGE('',*,*,#525,.T.);
#695=ORIENTED_EDGE('',*,*,#528,.T.);
#696=ORIENTED_EDGE('',*,*,#549,.F.);
#697=ORIENTED_EDGE('',*,*,#550,.F.);
#698=ORIENTED_EDGE('',*,*,#551,.F.);
#699=ORIENTED_EDGE('',*,*,#547,.F.);
#700=ORIENTED_EDGE('',*,*,#544,.T.);
#701=ORIENTED_EDGE('',*,*,#548,.T.);
#702=ORIENTED_EDGE('',*,*,#551,.T.);
#703=ORIENTED_EDGE('',*,*,#552,.T.);
#704=ORIENTED_EDGE('',*,*,#553,.F.);
#705=ORIENTED_EDGE('',*,*,#554,.F.);
#706=ORIENTED_EDGE('',*,*,#555,.T.);
#707=ORIENTED_EDGE('',*,*,#556,.T.);
#708=ORIENTED_EDGE('',*,*,#557,.F.);
#709=ORIENTED_EDGE('',*,*,#558,.T.);
#710=ORIENTED_EDGE('',*,*,#550,.T.);
#711=ORIENTED_EDGE('',*,*,#559,.F.);
#712=ORIENTED_EDGE('',*,*,#560,.F.);
#713=ORIENTED_EDGE('',*,*,#552,.F.);
#714=ORIENTED_EDGE('',*,*,#549,.T.);
#715=ORIENTED_EDGE('',*,*,#546,.T.);
#716=ORIENTED_EDGE('',*,*,#542,.T.);
#717=ORIENTED_EDGE('',*,*,#561,.T.);
#718=ORIENTED_EDGE('',*,*,#562,.F.);
#719=ORIENTED_EDGE('',*,*,#563,.F.);
#720=ORIENTED_EDGE('',*,*,#564,.T.);
#721=ORIENTED_EDGE('',*,*,#565,.T.);
#722=ORIENTED_EDGE('',*,*,#566,.F.);
#723=ORIENTED_EDGE('',*,*,#559,.T.);
#724=ORIENTED_EDGE('',*,*,#567,.F.);
#725=ORIENTED_EDGE('',*,*,#568,.T.);
#726=ORIENTED_EDGE('',*,*,#569,.T.);
#727=ORIENTED_EDGE('',*,*,#568,.F.);
#728=ORIENTED_EDGE('',*,*,#569,.F.);
#729=ORIENTED_EDGE('',*,*,#570,.F.);
#730=ORIENTED_EDGE('',*,*,#571,.T.);
#731=ORIENTED_EDGE('',*,*,#572,.T.);
#732=ORIENTED_EDGE('',*,*,#571,.F.);
#733=ORIENTED_EDGE('',*,*,#572,.F.);
#734=ORIENTED_EDGE('',*,*,#573,.F.);
#735=ORIENTED_EDGE('',*,*,#574,.T.);
#736=ORIENTED_EDGE('',*,*,#575,.T.);
#737=ORIENTED_EDGE('',*,*,#574,.F.);
#738=ORIENTED_EDGE('',*,*,#575,.F.);
#739=ORIENTED_EDGE('',*,*,#576,.F.);
#740=ORIENTED_EDGE('',*,*,#577,.T.);
#741=ORIENTED_EDGE('',*,*,#578,.T.);
#742=ORIENTED_EDGE('',*,*,#577,.F.);
#743=ORIENTED_EDGE('',*,*,#578,.F.);
#744=ORIENTED_EDGE('',*,*,#545,.T.);
#745=ORIENTED_EDGE('',*,*,#558,.F.);
#746=ORIENTED_EDGE('',*,*,#579,.F.);
#747=ORIENTED_EDGE('',*,*,#561,.F.);
#748=ORIENTED_EDGE('',*,*,#560,.T.);
#749=ORIENTED_EDGE('',*,*,#566,.T.);
#750=ORIENTED_EDGE('',*,*,#580,.T.);
#751=ORIENTED_EDGE('',*,*,#553,.T.);
#752=ORIENTED_EDGE('',*,*,#567,.T.);
#753=ORIENTED_EDGE('',*,*,#570,.T.);
#754=ORIENTED_EDGE('',*,*,#573,.T.);
#755=ORIENTED_EDGE('',*,*,#576,.T.);
#756=ORIENTED_EDGE('',*,*,#579,.T.);
#757=ORIENTED_EDGE('',*,*,#557,.T.);
#758=ORIENTED_EDGE('',*,*,#581,.T.);
#759=ORIENTED_EDGE('',*,*,#562,.T.);
#760=ORIENTED_EDGE('',*,*,#582,.F.);
#761=ORIENTED_EDGE('',*,*,#583,.T.);
#762=ORIENTED_EDGE('',*,*,#584,.F.);
#763=ORIENTED_EDGE('',*,*,#583,.F.);
#764=ORIENTED_EDGE('',*,*,#582,.T.);
#765=ORIENTED_EDGE('',*,*,#585,.F.);
#766=ORIENTED_EDGE('',*,*,#586,.T.);
#767=ORIENTED_EDGE('',*,*,#587,.F.);
#768=ORIENTED_EDGE('',*,*,#586,.F.);
#769=ORIENTED_EDGE('',*,*,#585,.T.);
#770=ORIENTED_EDGE('',*,*,#588,.F.);
#771=ORIENTED_EDGE('',*,*,#589,.T.);
#772=ORIENTED_EDGE('',*,*,#590,.F.);
#773=ORIENTED_EDGE('',*,*,#589,.F.);
#774=ORIENTED_EDGE('',*,*,#588,.T.);
#775=ORIENTED_EDGE('',*,*,#591,.F.);
#776=ORIENTED_EDGE('',*,*,#592,.T.);
#777=ORIENTED_EDGE('',*,*,#593,.F.);
#778=ORIENTED_EDGE('',*,*,#592,.F.);
#779=ORIENTED_EDGE('',*,*,#591,.T.);
#780=ORIENTED_EDGE('',*,*,#594,.F.);
#781=ORIENTED_EDGE('',*,*,#595,.T.);
#782=ORIENTED_EDGE('',*,*,#596,.F.);
#783=ORIENTED_EDGE('',*,*,#595,.F.);
#784=ORIENTED_EDGE('',*,*,#594,.T.);
#785=ORIENTED_EDGE('',*,*,#597,.F.);
#786=ORIENTED_EDGE('',*,*,#598,.T.);
#787=ORIENTED_EDGE('',*,*,#599,.F.);
#788=ORIENTED_EDGE('',*,*,#598,.F.);
#789=ORIENTED_EDGE('',*,*,#597,.T.);
#790=ORIENTED_EDGE('',*,*,#600,.F.);
#791=ORIENTED_EDGE('',*,*,#601,.T.);
#792=ORIENTED_EDGE('',*,*,#602,.F.);
#793=ORIENTED_EDGE('',*,*,#601,.F.);
#794=ORIENTED_EDGE('',*,*,#600,.T.);
#795=ORIENTED_EDGE('',*,*,#603,.F.);
#796=ORIENTED_EDGE('',*,*,#604,.T.);
#797=ORIENTED_EDGE('',*,*,#605,.F.);
#798=ORIENTED_EDGE('',*,*,#604,.F.);
#799=ORIENTED_EDGE('',*,*,#603,.T.);
#800=ORIENTED_EDGE('',*,*,#606,.F.);
#801=ORIENTED_EDGE('',*,*,#607,.T.);
#802=ORIENTED_EDGE('',*,*,#608,.F.);
#803=ORIENTED_EDGE('',*,*,#607,.F.);
#804=ORIENTED_EDGE('',*,*,#606,.T.);
#805=ORIENTED_EDGE('',*,*,#609,.F.);
#806=ORIENTED_EDGE('',*,*,#610,.T.);
#807=ORIENTED_EDGE('',*,*,#611,.F.);
#808=ORIENTED_EDGE('',*,*,#610,.F.);
#809=ORIENTED_EDGE('',*,*,#609,.T.);
#810=ORIENTED_EDGE('',*,*,#612,.F.);
#811=ORIENTED_EDGE('',*,*,#613,.T.);
#812=ORIENTED_EDGE('',*,*,#614,.F.);
#813=ORIENTED_EDGE('',*,*,#613,.F.);
#814=ORIENTED_EDGE('',*,*,#612,.T.);
#815=ORIENTED_EDGE('',*,*,#615,.F.);
#816=ORIENTED_EDGE('',*,*,#616,.T.);
#817=ORIENTED_EDGE('',*,*,#617,.F.);
#818=ORIENTED_EDGE('',*,*,#616,.F.);
#819=ORIENTED_EDGE('',*,*,#615,.T.);
#820=ORIENTED_EDGE('',*,*,#618,.F.);
#821=ORIENTED_EDGE('',*,*,#619,.T.);
#822=ORIENTED_EDGE('',*,*,#620,.F.);
#823=ORIENTED_EDGE('',*,*,#619,.F.);
#824=ORIENTED_EDGE('',*,*,#618,.T.);
#825=ORIENTED_EDGE('',*,*,#621,.F.);
#826=ORIENTED_EDGE('',*,*,#622,.T.);
#827=ORIENTED_EDGE('',*,*,#623,.F.);
#828=ORIENTED_EDGE('',*,*,#622,.F.);
#829=ORIENTED_EDGE('',*,*,#621,.T.);
#830=ORIENTED_EDGE('',*,*,#624,.F.);
#831=ORIENTED_EDGE('',*,*,#625,.T.);
#832=ORIENTED_EDGE('',*,*,#626,.F.);
#833=ORIENTED_EDGE('',*,*,#625,.F.);
#834=ORIENTED_EDGE('',*,*,#624,.T.);
#835=ORIENTED_EDGE('',*,*,#627,.F.);
#836=ORIENTED_EDGE('',*,*,#628,.T.);
#837=ORIENTED_EDGE('',*,*,#629,.F.);
#838=ORIENTED_EDGE('',*,*,#628,.F.);
#839=ORIENTED_EDGE('',*,*,#627,.T.);
#840=ORIENTED_EDGE('',*,*,#630,.T.);
#841=ORIENTED_EDGE('',*,*,#563,.T.);
#842=ORIENTED_EDGE('',*,*,#581,.F.);
#843=ORIENTED_EDGE('',*,*,#556,.F.);
#844=ORIENTED_EDGE('',*,*,#631,.T.);
#845=ORIENTED_EDGE('',*,*,#554,.T.);
#846=ORIENTED_EDGE('',*,*,#580,.F.);
#847=ORIENTED_EDGE('',*,*,#565,.F.);
#848=ORIENTED_EDGE('',*,*,#564,.F.);
#849=ORIENTED_EDGE('',*,*,#630,.F.);
#850=ORIENTED_EDGE('',*,*,#555,.F.);
#851=ORIENTED_EDGE('',*,*,#631,.F.);
#852=ORIENTED_EDGE('',*,*,#532,.T.);
#853=ORIENTED_EDGE('',*,*,#535,.T.);
#854=ORIENTED_EDGE('',*,*,#538,.T.);
#855=ORIENTED_EDGE('',*,*,#541,.T.);
#856=ORIENTED_EDGE('',*,*,#584,.T.);
#857=ORIENTED_EDGE('',*,*,#587,.T.);
#858=ORIENTED_EDGE('',*,*,#590,.T.);
#859=ORIENTED_EDGE('',*,*,#593,.T.);
#860=ORIENTED_EDGE('',*,*,#596,.T.);
#861=ORIENTED_EDGE('',*,*,#599,.T.);
#862=ORIENTED_EDGE('',*,*,#602,.T.);
#863=ORIENTED_EDGE('',*,*,#605,.T.);
#864=ORIENTED_EDGE('',*,*,#608,.T.);
#865=ORIENTED_EDGE('',*,*,#611,.T.);
#866=ORIENTED_EDGE('',*,*,#614,.T.);
#867=ORIENTED_EDGE('',*,*,#617,.T.);
#868=ORIENTED_EDGE('',*,*,#620,.T.);
#869=ORIENTED_EDGE('',*,*,#623,.T.);
#870=ORIENTED_EDGE('',*,*,#626,.T.);
#871=ORIENTED_EDGE('',*,*,#629,.T.);
#872=CYLINDRICAL_SURFACE('',#984,1.5);
#873=CYLINDRICAL_SURFACE('',#987,1.5);
#874=CYLINDRICAL_SURFACE('',#995,1.5);
#875=CYLINDRICAL_SURFACE('',#998,1.50000000000001);
#876=CYLINDRICAL_SURFACE('',#1001,1.5);
#877=CYLINDRICAL_SURFACE('',#1004,1.49999999999999);
#878=CYLINDRICAL_SURFACE('',#1013,1.5);
#879=CYLINDRICAL_SURFACE('',#1017,1.5);
#880=CYLINDRICAL_SURFACE('',#1021,1.5);
#881=CYLINDRICAL_SURFACE('',#1025,1.5);
#882=CYLINDRICAL_SURFACE('',#1032,1.5);
#883=CYLINDRICAL_SURFACE('',#1036,1.50000000000001);
#884=CYLINDRICAL_SURFACE('',#1040,1.5);
#885=CYLINDRICAL_SURFACE('',#1044,1.5);
#886=CYLINDRICAL_SURFACE('',#1048,1.5);
#887=CYLINDRICAL_SURFACE('',#1052,1.49999999999999);
#888=CYLINDRICAL_SURFACE('',#1056,1.50000000000001);
#889=CYLINDRICAL_SURFACE('',#1060,1.5);
#890=CYLINDRICAL_SURFACE('',#1064,1.5);
#891=CYLINDRICAL_SURFACE('',#1068,1.49999999999999);
#892=CYLINDRICAL_SURFACE('',#1072,1.49999999999999);
#893=CYLINDRICAL_SURFACE('',#1076,1.5);
#894=CYLINDRICAL_SURFACE('',#1080,1.49999999999999);
#895=CYLINDRICAL_SURFACE('',#1084,1.5);
#896=CYLINDRICAL_SURFACE('',#1088,1.5);
#897=CYLINDRICAL_SURFACE('',#1092,1.5);
#898=ADVANCED_FACE('',(#85),#872,.F.);
#899=ADVANCED_FACE('',(#86),#873,.F.);
#900=ADVANCED_FACE('',(#87),#48,.T.);
#901=ADVANCED_FACE('',(#88,#15,#16),#49,.T.);
#902=ADVANCED_FACE('',(#89),#50,.T.);
#903=ADVANCED_FACE('',(#90,#17,#18),#51,.T.);
#904=ADVANCED_FACE('',(#91),#52,.T.);
#905=ADVANCED_FACE('',(#92),#874,.F.);
#906=ADVANCED_FACE('',(#93),#875,.F.);
#907=ADVANCED_FACE('',(#94),#876,.F.);
#908=ADVANCED_FACE('',(#95),#877,.F.);
#909=ADVANCED_FACE('',(#96,#19,#20,#21,#22),#53,.F.);
#910=ADVANCED_FACE('',(#97,#23),#54,.F.);
#911=ADVANCED_FACE('',(#98),#55,.F.);
#912=ADVANCED_FACE('',(#99),#56,.T.);
#913=ADVANCED_FACE('',(#100),#57,.T.);
#914=ADVANCED_FACE('',(#101),#58,.T.);
#915=ADVANCED_FACE('',(#102),#878,.F.);
#916=ADVANCED_FACE('',(#103),#59,.T.);
#917=ADVANCED_FACE('',(#104),#879,.F.);
#918=ADVANCED_FACE('',(#105),#60,.T.);
#919=ADVANCED_FACE('',(#106),#880,.F.);
#920=ADVANCED_FACE('',(#107),#61,.T.);
#921=ADVANCED_FACE('',(#108),#881,.F.);
#922=ADVANCED_FACE('',(#109),#62,.T.);
#923=ADVANCED_FACE('',(#110),#63,.T.);
#924=ADVANCED_FACE('',(#111,#24,#25,#26,#27),#64,.T.);
#925=ADVANCED_FACE('',(#112),#65,.T.);
#926=ADVANCED_FACE('',(#113),#882,.T.);
#927=ADVANCED_FACE('',(#114),#66,.F.);
#928=ADVANCED_FACE('',(#115),#883,.T.);
#929=ADVANCED_FACE('',(#116),#67,.F.);
#930=ADVANCED_FACE('',(#117),#884,.T.);
#931=ADVANCED_FACE('',(#118),#68,.F.);
#932=ADVANCED_FACE('',(#119),#885,.T.);
#933=ADVANCED_FACE('',(#120),#69,.F.);
#934=ADVANCED_FACE('',(#121),#886,.T.);
#935=ADVANCED_FACE('',(#122),#70,.F.);
#936=ADVANCED_FACE('',(#123),#887,.T.);
#937=ADVANCED_FACE('',(#124),#71,.F.);
#938=ADVANCED_FACE('',(#125),#888,.T.);
#939=ADVANCED_FACE('',(#126),#72,.F.);
#940=ADVANCED_FACE('',(#127),#889,.T.);
#941=ADVANCED_FACE('',(#128),#73,.F.);
#942=ADVANCED_FACE('',(#129),#890,.T.);
#943=ADVANCED_FACE('',(#130),#74,.F.);
#944=ADVANCED_FACE('',(#131),#891,.T.);
#945=ADVANCED_FACE('',(#132),#75,.F.);
#946=ADVANCED_FACE('',(#133),#892,.T.);
#947=ADVANCED_FACE('',(#134),#76,.F.);
#948=ADVANCED_FACE('',(#135),#893,.T.);
#949=ADVANCED_FACE('',(#136),#77,.F.);
#950=ADVANCED_FACE('',(#137),#894,.T.);
#951=ADVANCED_FACE('',(#138),#78,.F.);
#952=ADVANCED_FACE('',(#139),#895,.T.);
#953=ADVANCED_FACE('',(#140),#79,.F.);
#954=ADVANCED_FACE('',(#141),#896,.T.);
#955=ADVANCED_FACE('',(#142),#80,.F.);
#956=ADVANCED_FACE('',(#143),#897,.T.);
#957=ADVANCED_FACE('',(#144),#81,.F.);
#958=ADVANCED_FACE('',(#145),#82,.T.);
#959=ADVANCED_FACE('',(#146),#83,.T.);
#960=ADVANCED_FACE('',(#147,#28,#29,#30,#31,#32,#33,#34,#35,#36,#37,#38,
#39,#40,#41,#42,#43,#44,#45,#46,#47),#84,.F.);
#961=CLOSED_SHELL('',(#898,#899,#900,#901,#902,#903,#904,#905,#906,#907,
#908,#909,#910,#911,#912,#913,#914,#915,#916,#917,#918,#919,#920,#921,#922,
#923,#924,#925,#926,#927,#928,#929,#930,#931,#932,#933,#934,#935,#936,#937,
#938,#939,#940,#941,#942,#943,#944,#945,#946,#947,#948,#949,#950,#951,#952,
#953,#954,#955,#956,#957,#958,#959,#960));
#962=DERIVED_UNIT_ELEMENT(#965,1.);
#963=DERIVED_UNIT_ELEMENT(#1668,-3.);
#964=DIMENSIONAL_EXPONENTS(0.,1.,0.,0.,0.,0.,0.);
#965=(
CONVERSION_BASED_UNIT('gram',#967)
MASS_UNIT()
NAMED_UNIT(#964)
);
#966=(
MASS_UNIT()
NAMED_UNIT(*)
SI_UNIT(.KILO.,.GRAM.)
);
#967=MASS_MEASURE_WITH_UNIT(MASS_MEASURE(0.001),#966);
#968=DERIVED_UNIT((#962,#963));
#969=MEASURE_REPRESENTATION_ITEM('density measure',
POSITIVE_RATIO_MEASURE(1.),#968);
#970=PROPERTY_DEFINITION_REPRESENTATION(#975,#972);
#971=PROPERTY_DEFINITION_REPRESENTATION(#976,#973);
#972=REPRESENTATION('material name',(#974),#1665);
#973=REPRESENTATION('density',(#969),#1665);
#974=DESCRIPTIVE_REPRESENTATION_ITEM('Gen\X\E9rico','Gen\X\E9rico');
#975=PROPERTY_DEFINITION('material property','material name',#1675);
#976=PROPERTY_DEFINITION('material property','density of part',#1675);
#977=DATE_TIME_ROLE('creation_date');
#978=APPLIED_DATE_AND_TIME_ASSIGNMENT(#979,#977,(#1675));
#979=DATE_AND_TIME(#980,#981);
#980=CALENDAR_DATE(2025,7,4);
#981=LOCAL_TIME(0,0,0.,#982);
#982=COORDINATED_UNIVERSAL_TIME_OFFSET(0,0,.BEHIND.);
#983=AXIS2_PLACEMENT_3D('',#1399,#1099,#1100);
#984=AXIS2_PLACEMENT_3D('',#1400,#1101,#1102);
#985=AXIS2_PLACEMENT_3D('',#1402,#1103,#1104);
#986=AXIS2_PLACEMENT_3D('',#1405,#1106,#1107);
#987=AXIS2_PLACEMENT_3D('',#1406,#1108,#1109);
#988=AXIS2_PLACEMENT_3D('',#1408,#1110,#1111);
#989=AXIS2_PLACEMENT_3D('',#1411,#1113,#1114);
#990=AXIS2_PLACEMENT_3D('',#1412,#1115,#1116);
#991=AXIS2_PLACEMENT_3D('',#1421,#1121,#1122);
#992=AXIS2_PLACEMENT_3D('',#1427,#1126,#1127);
#993=AXIS2_PLACEMENT_3D('',#1433,#1131,#1132);
#994=AXIS2_PLACEMENT_3D('',#1436,#1135,#1136);
#995=AXIS2_PLACEMENT_3D('',#1437,#1137,#1138);
#996=AXIS2_PLACEMENT_3D('',#1439,#1139,#1140);
#997=AXIS2_PLACEMENT_3D('',#1442,#1142,#1143);
#998=AXIS2_PLACEMENT_3D('',#1443,#1144,#1145);
#999=AXIS2_PLACEMENT_3D('',#1445,#1146,#1147);
#1000=AXIS2_PLACEMENT_3D('',#1448,#1149,#1150);
#1001=AXIS2_PLACEMENT_3D('',#1449,#1151,#1152);
#1002=AXIS2_PLACEMENT_3D('',#1451,#1153,#1154);
#1003=AXIS2_PLACEMENT_3D('',#1454,#1156,#1157);
#1004=AXIS2_PLACEMENT_3D('',#1455,#1158,#1159);
#1005=AXIS2_PLACEMENT_3D('',#1457,#1160,#1161);
#1006=AXIS2_PLACEMENT_3D('',#1460,#1163,#1164);
#1007=AXIS2_PLACEMENT_3D('',#1461,#1165,#1166);
#1008=AXIS2_PLACEMENT_3D('',#1470,#1171,#1172);
#1009=AXIS2_PLACEMENT_3D('',#1476,#1176,#1177);
#1010=AXIS2_PLACEMENT_3D('',#1482,#1181,#1182);
#1011=AXIS2_PLACEMENT_3D('',#1496,#1190,#1191);
#1012=AXIS2_PLACEMENT_3D('',#1500,#1194,#1195);
#1013=AXIS2_PLACEMENT_3D('',#1512,#1202,#1203);
#1014=AXIS2_PLACEMENT_3D('',#1514,#1204,#1205);
#1015=AXIS2_PLACEMENT_3D('',#1517,#1207,#1208);
#1016=AXIS2_PLACEMENT_3D('',#1518,#1209,#1210);
#1017=AXIS2_PLACEMENT_3D('',#1519,#1211,#1212);
#1018=AXIS2_PLACEMENT_3D('',#1521,#1213,#1214);
#1019=AXIS2_PLACEMENT_3D('',#1524,#1216,#1217);
#1020=AXIS2_PLACEMENT_3D('',#1525,#1218,#1219);
#1021=AXIS2_PLACEMENT_3D('',#1526,#1220,#1221);
#1022=AXIS2_PLACEMENT_3D('',#1528,#1222,#1223);
#1023=AXIS2_PLACEMENT_3D('',#1531,#1225,#1226);
#1024=AXIS2_PLACEMENT_3D('',#1532,#1227,#1228);
#1025=AXIS2_PLACEMENT_3D('',#1533,#1229,#1230);
#1026=AXIS2_PLACEMENT_3D('',#1535,#1231,#1232);
#1027=AXIS2_PLACEMENT_3D('',#1538,#1234,#1235);
#1028=AXIS2_PLACEMENT_3D('',#1539,#1236,#1237);
#1029=AXIS2_PLACEMENT_3D('',#1540,#1238,#1239);
#1030=AXIS2_PLACEMENT_3D('',#1542,#1241,#1242);
#1031=AXIS2_PLACEMENT_3D('',#1544,#1244,#1245);
#1032=AXIS2_PLACEMENT_3D('',#1546,#1247,#1248);
#1033=AXIS2_PLACEMENT_3D('',#1548,#1249,#1250);
#1034=AXIS2_PLACEMENT_3D('',#1551,#1252,#1253);
#1035=AXIS2_PLACEMENT_3D('',#1552,#1254,#1255);
#1036=AXIS2_PLACEMENT_3D('',#1553,#1256,#1257);
#1037=AXIS2_PLACEMENT_3D('',#1555,#1258,#1259);
#1038=AXIS2_PLACEMENT_3D('',#1558,#1261,#1262);
#1039=AXIS2_PLACEMENT_3D('',#1559,#1263,#1264);
#1040=AXIS2_PLACEMENT_3D('',#1560,#1265,#1266);
#1041=AXIS2_PLACEMENT_3D('',#1562,#1267,#1268);
#1042=AXIS2_PLACEMENT_3D('',#1565,#1270,#1271);
#1043=AXIS2_PLACEMENT_3D('',#1566,#1272,#1273);
#1044=AXIS2_PLACEMENT_3D('',#1567,#1274,#1275);
#1045=AXIS2_PLACEMENT_3D('',#1569,#1276,#1277);
#1046=AXIS2_PLACEMENT_3D('',#1572,#1279,#1280);
#1047=AXIS2_PLACEMENT_3D('',#1573,#1281,#1282);
#1048=AXIS2_PLACEMENT_3D('',#1574,#1283,#1284);
#1049=AXIS2_PLACEMENT_3D('',#1576,#1285,#1286);
#1050=AXIS2_PLACEMENT_3D('',#1579,#1288,#1289);
#1051=AXIS2_PLACEMENT_3D('',#1580,#1290,#1291);
#1052=AXIS2_PLACEMENT_3D('',#1581,#1292,#1293);
#1053=AXIS2_PLACEMENT_3D('',#1583,#1294,#1295);
#1054=AXIS2_PLACEMENT_3D('',#1586,#1297,#1298);
#1055=AXIS2_PLACEMENT_3D('',#1587,#1299,#1300);
#1056=AXIS2_PLACEMENT_3D('',#1588,#1301,#1302);
#1057=AXIS2_PLACEMENT_3D('',#1590,#1303,#1304);
#1058=AXIS2_PLACEMENT_3D('',#1593,#1306,#1307);
#1059=AXIS2_PLACEMENT_3D('',#1594,#1308,#1309);
#1060=AXIS2_PLACEMENT_3D('',#1595,#1310,#1311);
#1061=AXIS2_PLACEMENT_3D('',#1597,#1312,#1313);
#1062=AXIS2_PLACEMENT_3D('',#1600,#1315,#1316);
#1063=AXIS2_PLACEMENT_3D('',#1601,#1317,#1318);
#1064=AXIS2_PLACEMENT_3D('',#1602,#1319,#1320);
#1065=AXIS2_PLACEMENT_3D('',#1604,#1321,#1322);
#1066=AXIS2_PLACEMENT_3D('',#1607,#1324,#1325);
#1067=AXIS2_PLACEMENT_3D('',#1608,#1326,#1327);
#1068=AXIS2_PLACEMENT_3D('',#1609,#1328,#1329);
#1069=AXIS2_PLACEMENT_3D('',#1611,#1330,#1331);
#1070=AXIS2_PLACEMENT_3D('',#1614,#1333,#1334);
#1071=AXIS2_PLACEMENT_3D('',#1615,#1335,#1336);
#1072=AXIS2_PLACEMENT_3D('',#1616,#1337,#1338);
#1073=AXIS2_PLACEMENT_3D('',#1618,#1339,#1340);
#1074=AXIS2_PLACEMENT_3D('',#1621,#1342,#1343);
#1075=AXIS2_PLACEMENT_3D('',#1622,#1344,#1345);
#1076=AXIS2_PLACEMENT_3D('',#1623,#1346,#1347);
#1077=AXIS2_PLACEMENT_3D('',#1625,#1348,#1349);
#1078=AXIS2_PLACEMENT_3D('',#1628,#1351,#1352);
#1079=AXIS2_PLACEMENT_3D('',#1629,#1353,#1354);
#1080=AXIS2_PLACEMENT_3D('',#1630,#1355,#1356);
#1081=AXIS2_PLACEMENT_3D('',#1632,#1357,#1358);
#1082=AXIS2_PLACEMENT_3D('',#1635,#1360,#1361);
#1083=AXIS2_PLACEMENT_3D('',#1636,#1362,#1363);
#1084=AXIS2_PLACEMENT_3D('',#1637,#1364,#1365);
#1085=AXIS2_PLACEMENT_3D('',#1639,#1366,#1367);
#1086=AXIS2_PLACEMENT_3D('',#1642,#1369,#1370);
#1087=AXIS2_PLACEMENT_3D('',#1643,#1371,#1372);
#1088=AXIS2_PLACEMENT_3D('',#1644,#1373,#1374);
#1089=AXIS2_PLACEMENT_3D('',#1646,#1375,#1376);
#1090=AXIS2_PLACEMENT_3D('',#1649,#1378,#1379);
#1091=AXIS2_PLACEMENT_3D('',#1650,#1380,#1381);
#1092=AXIS2_PLACEMENT_3D('',#1651,#1382,#1383);
#1093=AXIS2_PLACEMENT_3D('',#1653,#1384,#1385);
#1094=AXIS2_PLACEMENT_3D('',#1656,#1387,#1388);
#1095=AXIS2_PLACEMENT_3D('',#1657,#1389,#1390);
#1096=AXIS2_PLACEMENT_3D('',#1658,#1391,#1392);
#1097=AXIS2_PLACEMENT_3D('',#1660,#1394,#1395);
#1098=AXIS2_PLACEMENT_3D('',#1662,#1397,#1398);
#1099=DIRECTION('axis',(0.,0.,1.));
#1100=DIRECTION('refdir',(1.,0.,0.));
#1101=DIRECTION('center_axis',(0.,-1.,0.));
#1102=DIRECTION('ref_axis',(1.,0.,-1.1842378929335E-15));
#1103=DIRECTION('center_axis',(0.,-1.,0.));
#1104=DIRECTION('ref_axis',(1.,0.,-1.1842378929335E-15));
#1105=DIRECTION('',(0.,-1.,0.));
#1106=DIRECTION('center_axis',(-5.9211894646675E-16,1.,1.01136013489873E-31));
#1107=DIRECTION('ref_axis',(1.,0.,-1.1842378929335E-15));
#1108=DIRECTION('center_axis',(0.,-1.,0.));
#1109=DIRECTION('ref_axis',(1.,0.,-1.1842378929335E-15));
#1110=DIRECTION('center_axis',(0.,-1.,0.));
#1111=DIRECTION('ref_axis',(1.,0.,-1.1842378929335E-15));
#1112=DIRECTION('',(0.,-1.,0.));
#1113=DIRECTION('center_axis',(-5.9211894646675E-16,1.,1.01136013489873E-31));
#1114=DIRECTION('ref_axis',(1.,0.,-1.1842378929335E-15));
#1115=DIRECTION('center_axis',(-1.,0.,1.70803542250024E-16));
#1116=DIRECTION('ref_axis',(0.,-1.,0.));
#1117=DIRECTION('',(0.,1.,0.));
#1118=DIRECTION('',(1.70803542250024E-16,0.,1.));
#1119=DIRECTION('',(0.,-1.,0.));
#1120=DIRECTION('',(1.70803542250024E-16,0.,1.));
#1121=DIRECTION('center_axis',(0.,1.,0.));
#1122=DIRECTION('ref_axis',(-1.,0.,1.1842378929335E-16));
#1123=DIRECTION('',(1.,0.,-1.1842378929335E-16));
#1124=DIRECTION('',(-1.,0.,1.1842378929335E-16));
#1125=DIRECTION('',(1.70803542250024E-16,0.,1.));
#1126=DIRECTION('center_axis',(1.,0.,-1.70803542250024E-16));
#1127=DIRECTION('ref_axis',(0.,1.,0.));
#1128=DIRECTION('',(0.,-1.,0.));
#1129=DIRECTION('',(0.,1.,0.));
#1130=DIRECTION('',(1.70803542250024E-16,0.,1.));
#1131=DIRECTION('center_axis',(5.9211894646675E-16,-1.,-1.01136013489873E-31));
#1132=DIRECTION('ref_axis',(1.,5.9211894646675E-16,-1.1842378929335E-16));
#1133=DIRECTION('',(-1.,-5.9211894646675E-16,1.1842378929335E-16));
#1134=DIRECTION('',(1.,5.9211894646675E-16,-1.1842378929335E-16));
#1135=DIRECTION('center_axis',(1.70803542250024E-16,0.,1.));
#1136=DIRECTION('ref_axis',(1.,0.,-1.70803542250024E-16));
#1137=DIRECTION('center_axis',(0.,-1.,0.));
#1138=DIRECTION('ref_axis',(1.,0.,-6.21294218462585E-17));
#1139=DIRECTION('center_axis',(0.,-1.,0.));
#1140=DIRECTION('ref_axis',(1.,0.,-6.21294218462585E-17));
#1141=DIRECTION('',(0.,-1.,0.));
#1142=DIRECTION('center_axis',(0.,1.,0.));
#1143=DIRECTION('ref_axis',(1.,0.,-6.21294218462585E-17));
#1144=DIRECTION('center_axis',(0.,-1.,0.));
#1145=DIRECTION('ref_axis',(1.,0.,-6.21294218462585E-17));
#1146=DIRECTION('center_axis',(0.,-1.,0.));
#1147=DIRECTION('ref_axis',(1.,0.,-6.21294218462585E-17));
#1148=DIRECTION('',(0.,-1.,0.));
#1149=DIRECTION('center_axis',(0.,1.,0.));
#1150=DIRECTION('ref_axis',(1.,0.,-6.21294218462585E-17));
#1151=DIRECTION('center_axis',(0.,-1.,0.));
#1152=DIRECTION('ref_axis',(1.,0.,-6.21294218462585E-17));
#1153=DIRECTION('center_axis',(0.,-1.,0.));
#1154=DIRECTION('ref_axis',(1.,0.,-6.21294218462585E-17));
#1155=DIRECTION('',(0.,-1.,0.));
#1156=DIRECTION('center_axis',(0.,1.,0.));
#1157=DIRECTION('ref_axis',(1.,0.,-6.21294218462585E-17));
#1158=DIRECTION('center_axis',(0.,-1.,0.));
#1159=DIRECTION('ref_axis',(1.,0.,-6.21294218462585E-17));
#1160=DIRECTION('center_axis',(0.,-1.,0.));
#1161=DIRECTION('ref_axis',(1.,0.,-6.21294218462585E-17));
#1162=DIRECTION('',(0.,-1.,0.));
#1163=DIRECTION('center_axis',(0.,1.,0.));
#1164=DIRECTION('ref_axis',(1.,0.,-6.21294218462585E-17));
#1165=DIRECTION('center_axis',(0.,-1.,0.));
#1166=DIRECTION('ref_axis',(7.89491928622334E-17,0.,1.));
#1167=DIRECTION('',(7.89491928622334E-17,0.,1.));
#1168=DIRECTION('',(-1.,0.,1.1842378929335E-16));
#1169=DIRECTION('',(-1.57898385724467E-16,0.,-1.));
#1170=DIRECTION('',(-1.,0.,5.9211894646675E-17));
#1171=DIRECTION('center_axis',(-1.1842378929335E-16,0.,-1.));
#1172=DIRECTION('ref_axis',(0.,-1.,0.));
#1173=DIRECTION('',(0.,-1.,0.));
#1174=DIRECTION('',(-1.,0.,1.1842378929335E-16));
#1175=DIRECTION('',(0.,1.,0.));
#1176=DIRECTION('center_axis',(0.,1.,0.));
#1177=DIRECTION('ref_axis',(-7.89491928622334E-17,0.,-1.));
#1178=DIRECTION('',(-7.89491928622334E-17,0.,-1.));
#1179=DIRECTION('',(1.,0.,-5.9211894646675E-17));
#1180=DIRECTION('',(1.57898385724467E-16,0.,1.));
#1181=DIRECTION('center_axis',(-1.,0.,1.57898385724467E-16));
#1182=DIRECTION('ref_axis',(1.57898385724467E-16,0.,1.));
#1183=DIRECTION('',(-3.94745964311167E-17,0.866025403784439,-0.5));
#1184=DIRECTION('',(0.,0.,1.));
#1185=DIRECTION('',(0.,1.,0.));
#1186=DIRECTION('',(1.57898385724467E-16,0.,1.));
#1187=DIRECTION('',(0.,1.,0.));
#1188=DIRECTION('',(1.57898385724467E-16,0.,1.));
#1189=DIRECTION('',(-3.94745964311167E-17,0.866025403784439,-0.5));
#1190=DIRECTION('center_axis',(5.12790049702284E-17,0.5,0.866025403784439));
#1191=DIRECTION('ref_axis',(-3.94745964311167E-17,0.866025403784439,-0.5));
#1192=DIRECTION('',(3.94745964311167E-17,-0.866025403784439,0.5));
#1193=DIRECTION('',(1.,0.,0.));
#1194=DIRECTION('center_axis',(1.,0.,-7.89491928622334E-17));
#1195=DIRECTION('ref_axis',(-7.89491928622334E-17,0.,-1.));
#1196=DIRECTION('',(3.94745964311167E-17,-0.866025403784439,0.5));
#1197=DIRECTION('',(-7.89491928622334E-17,0.,-1.));
#1198=DIRECTION('',(0.,1.,0.));
#1199=DIRECTION('',(-7.89491928622334E-17,0.,-1.));
#1200=DIRECTION('',(0.,1.,0.));
#1201=DIRECTION('',(0.,0.,-1.));
#1202=DIRECTION('center_axis',(0.,-1.,0.));
#1203=DIRECTION('ref_axis',(1.,0.,0.));
#1204=DIRECTION('center_axis',(0.,-1.,0.));
#1205=DIRECTION('ref_axis',(1.,0.,0.));
#1206=DIRECTION('',(0.,-1.,0.));
#1207=DIRECTION('center_axis',(0.,-1.,0.));
#1208=DIRECTION('ref_axis',(1.,0.,0.));
#1209=DIRECTION('center_axis',(0.,1.,0.));
#1210=DIRECTION('ref_axis',(0.,0.,1.));
#1211=DIRECTION('center_axis',(0.,-1.,0.));
#1212=DIRECTION('ref_axis',(1.,0.,0.));
#1213=DIRECTION('center_axis',(0.,-1.,0.));
#1214=DIRECTION('ref_axis',(1.,0.,0.));
#1215=DIRECTION('',(0.,-1.,0.));
#1216=DIRECTION('center_axis',(0.,-1.,0.));
#1217=DIRECTION('ref_axis',(1.,0.,0.));
#1218=DIRECTION('center_axis',(0.,1.,0.));
#1219=DIRECTION('ref_axis',(0.,0.,1.));
#1220=DIRECTION('center_axis',(0.,-1.,0.));
#1221=DIRECTION('ref_axis',(1.,0.,0.));
#1222=DIRECTION('center_axis',(0.,-1.,0.));
#1223=DIRECTION('ref_axis',(1.,0.,0.));
#1224=DIRECTION('',(0.,-1.,0.));
#1225=DIRECTION('center_axis',(0.,-1.,0.));
#1226=DIRECTION('ref_axis',(1.,0.,0.));
#1227=DIRECTION('center_axis',(0.,1.,0.));
#1228=DIRECTION('ref_axis',(0.,0.,1.));
#1229=DIRECTION('center_axis',(0.,-1.,0.));
#1230=DIRECTION('ref_axis',(1.,0.,0.));
#1231=DIRECTION('center_axis',(0.,-1.,0.));
#1232=DIRECTION('ref_axis',(1.,0.,0.));
#1233=DIRECTION('',(0.,-1.,0.));
#1234=DIRECTION('center_axis',(0.,-1.,0.));
#1235=DIRECTION('ref_axis',(1.,0.,0.));
#1236=DIRECTION('center_axis',(0.,1.,0.));
#1237=DIRECTION('ref_axis',(0.,0.,1.));
#1238=DIRECTION('center_axis',(5.12790049702284E-17,0.5,0.866025403784439));
#1239=DIRECTION('ref_axis',(-3.94745964311167E-17,0.866025403784439,-0.5));
#1240=DIRECTION('',(-1.,0.,5.9211894646675E-17));
#1241=DIRECTION('center_axis',(0.,1.,0.));
#1242=DIRECTION('ref_axis',(0.,0.,1.));
#1243=DIRECTION('',(-1.,0.,2.368475785867E-16));
#1244=DIRECTION('center_axis',(0.,1.,0.));
#1245=DIRECTION('ref_axis',(0.,0.,1.));
#1246=DIRECTION('',(1.,0.,-2.368475785867E-16));
#1247=DIRECTION('center_axis',(0.,-1.,0.));
#1248=DIRECTION('ref_axis',(1.,0.,0.));
#1249=DIRECTION('center_axis',(0.,-1.,0.));
#1250=DIRECTION('ref_axis',(1.,0.,0.));
#1251=DIRECTION('',(0.,1.,0.));
#1252=DIRECTION('center_axis',(0.,1.,0.));
#1253=DIRECTION('ref_axis',(1.,0.,0.));
#1254=DIRECTION('center_axis',(0.,1.,0.));
#1255=DIRECTION('ref_axis',(0.,0.,1.));
#1256=DIRECTION('center_axis',(0.,-1.,0.));
#1257=DIRECTION('ref_axis',(1.,0.,0.));
#1258=DIRECTION('center_axis',(0.,-1.,0.));
#1259=DIRECTION('ref_axis',(1.,0.,0.));
#1260=DIRECTION('',(0.,1.,0.));
#1261=DIRECTION('center_axis',(0.,1.,0.));
#1262=DIRECTION('ref_axis',(1.,0.,0.));
#1263=DIRECTION('center_axis',(0.,1.,0.));
#1264=DIRECTION('ref_axis',(0.,0.,1.));
#1265=DIRECTION('center_axis',(0.,-1.,0.));
#1266=DIRECTION('ref_axis',(1.,0.,0.));
#1267=DIRECTION('center_axis',(0.,-1.,0.));
#1268=DIRECTION('ref_axis',(1.,0.,0.));
#1269=DIRECTION('',(0.,1.,0.));
#1270=DIRECTION('center_axis',(0.,1.,0.));
#1271=DIRECTION('ref_axis',(1.,0.,0.));
#1272=DIRECTION('center_axis',(0.,1.,0.));
#1273=DIRECTION('ref_axis',(0.,0.,1.));
#1274=DIRECTION('center_axis',(0.,-1.,0.));
#1275=DIRECTION('ref_axis',(1.,0.,0.));
#1276=DIRECTION('center_axis',(0.,-1.,0.));
#1277=DIRECTION('ref_axis',(1.,0.,0.));
#1278=DIRECTION('',(0.,1.,0.));
#1279=DIRECTION('center_axis',(0.,1.,0.));
#1280=DIRECTION('ref_axis',(1.,0.,0.));
#1281=DIRECTION('center_axis',(0.,1.,0.));
#1282=DIRECTION('ref_axis',(0.,0.,1.));
#1283=DIRECTION('center_axis',(0.,-1.,0.));
#1284=DIRECTION('ref_axis',(1.,0.,0.));
#1285=DIRECTION('center_axis',(0.,-1.,0.));
#1286=DIRECTION('ref_axis',(1.,0.,0.));
#1287=DIRECTION('',(0.,1.,0.));
#1288=DIRECTION('center_axis',(0.,1.,0.));
#1289=DIRECTION('ref_axis',(1.,0.,0.));
#1290=DIRECTION('center_axis',(0.,1.,0.));
#1291=DIRECTION('ref_axis',(0.,0.,1.));
#1292=DIRECTION('center_axis',(0.,-1.,0.));
#1293=DIRECTION('ref_axis',(1.,0.,0.));
#1294=DIRECTION('center_axis',(0.,-1.,0.));
#1295=DIRECTION('ref_axis',(1.,0.,0.));
#1296=DIRECTION('',(0.,1.,0.));
#1297=DIRECTION('center_axis',(0.,1.,0.));
#1298=DIRECTION('ref_axis',(1.,0.,0.));
#1299=DIRECTION('center_axis',(0.,1.,0.));
#1300=DIRECTION('ref_axis',(0.,0.,1.));
#1301=DIRECTION('center_axis',(0.,-1.,0.));
#1302=DIRECTION('ref_axis',(1.,0.,0.));
#1303=DIRECTION('center_axis',(0.,-1.,0.));
#1304=DIRECTION('ref_axis',(1.,0.,0.));
#1305=DIRECTION('',(0.,1.,0.));
#1306=DIRECTION('center_axis',(0.,1.,0.));
#1307=DIRECTION('ref_axis',(1.,0.,0.));
#1308=DIRECTION('center_axis',(0.,1.,0.));
#1309=DIRECTION('ref_axis',(0.,0.,1.));
#1310=DIRECTION('center_axis',(0.,-1.,0.));
#1311=DIRECTION('ref_axis',(1.,0.,0.));
#1312=DIRECTION('center_axis',(0.,-1.,0.));
#1313=DIRECTION('ref_axis',(1.,0.,0.));
#1314=DIRECTION('',(0.,1.,0.));
#1315=DIRECTION('center_axis',(0.,1.,0.));
#1316=DIRECTION('ref_axis',(1.,0.,0.));
#1317=DIRECTION('center_axis',(0.,1.,0.));
#1318=DIRECTION('ref_axis',(0.,0.,1.));
#1319=DIRECTION('center_axis',(0.,-1.,0.));
#1320=DIRECTION('ref_axis',(1.,0.,0.));
#1321=DIRECTION('center_axis',(0.,-1.,0.));
#1322=DIRECTION('ref_axis',(1.,0.,0.));
#1323=DIRECTION('',(0.,1.,0.));
#1324=DIRECTION('center_axis',(0.,1.,0.));
#1325=DIRECTION('ref_axis',(1.,0.,0.));
#1326=DIRECTION('center_axis',(0.,1.,0.));
#1327=DIRECTION('ref_axis',(0.,0.,1.));
#1328=DIRECTION('center_axis',(0.,-1.,0.));
#1329=DIRECTION('ref_axis',(1.,0.,0.));
#1330=DIRECTION('center_axis',(0.,-1.,0.));
#1331=DIRECTION('ref_axis',(1.,0.,0.));
#1332=DIRECTION('',(0.,1.,0.));
#1333=DIRECTION('center_axis',(0.,1.,0.));
#1334=DIRECTION('ref_axis',(1.,0.,0.));
#1335=DIRECTION('center_axis',(0.,1.,0.));
#1336=DIRECTION('ref_axis',(0.,0.,1.));
#1337=DIRECTION('center_axis',(0.,-1.,0.));
#1338=DIRECTION('ref_axis',(1.,0.,0.));
#1339=DIRECTION('center_axis',(0.,-1.,0.));
#1340=DIRECTION('ref_axis',(1.,0.,0.));
#1341=DIRECTION('',(0.,1.,0.));
#1342=DIRECTION('center_axis',(0.,1.,0.));
#1343=DIRECTION('ref_axis',(1.,0.,0.));
#1344=DIRECTION('center_axis',(0.,1.,0.));
#1345=DIRECTION('ref_axis',(0.,0.,1.));
#1346=DIRECTION('center_axis',(0.,-1.,0.));
#1347=DIRECTION('ref_axis',(1.,0.,0.));
#1348=DIRECTION('center_axis',(0.,-1.,0.));
#1349=DIRECTION('ref_axis',(1.,0.,0.));
#1350=DIRECTION('',(0.,1.,0.));
#1351=DIRECTION('center_axis',(0.,1.,0.));
#1352=DIRECTION('ref_axis',(1.,0.,0.));
#1353=DIRECTION('center_axis',(0.,1.,0.));
#1354=DIRECTION('ref_axis',(0.,0.,1.));
#1355=DIRECTION('center_axis',(0.,-1.,0.));
#1356=DIRECTION('ref_axis',(1.,0.,0.));
#1357=DIRECTION('center_axis',(0.,-1.,0.));
#1358=DIRECTION('ref_axis',(1.,0.,0.));
#1359=DIRECTION('',(0.,1.,0.));
#1360=DIRECTION('center_axis',(0.,1.,0.));
#1361=DIRECTION('ref_axis',(1.,0.,0.));
#1362=DIRECTION('center_axis',(0.,1.,0.));
#1363=DIRECTION('ref_axis',(0.,0.,1.));
#1364=DIRECTION('center_axis',(0.,-1.,0.));
#1365=DIRECTION('ref_axis',(1.,0.,0.));
#1366=DIRECTION('center_axis',(0.,-1.,0.));
#1367=DIRECTION('ref_axis',(1.,0.,0.));
#1368=DIRECTION('',(0.,1.,0.));
#1369=DIRECTION('center_axis',(0.,1.,0.));
#1370=DIRECTION('ref_axis',(1.,0.,0.));
#1371=DIRECTION('center_axis',(0.,1.,0.));
#1372=DIRECTION('ref_axis',(0.,0.,1.));
#1373=DIRECTION('center_axis',(0.,-1.,0.));
#1374=DIRECTION('ref_axis',(1.,0.,0.));
#1375=DIRECTION('center_axis',(0.,-1.,0.));
#1376=DIRECTION('ref_axis',(1.,0.,0.));
#1377=DIRECTION('',(0.,1.,0.));
#1378=DIRECTION('center_axis',(0.,1.,0.));
#1379=DIRECTION('ref_axis',(1.,0.,0.));
#1380=DIRECTION('center_axis',(0.,1.,0.));
#1381=DIRECTION('ref_axis',(0.,0.,1.));
#1382=DIRECTION('center_axis',(0.,-1.,0.));
#1383=DIRECTION('ref_axis',(1.,0.,0.));
#1384=DIRECTION('center_axis',(0.,-1.,0.));
#1385=DIRECTION('ref_axis',(1.,0.,0.));
#1386=DIRECTION('',(0.,1.,0.));
#1387=DIRECTION('center_axis',(0.,1.,0.));
#1388=DIRECTION('ref_axis',(1.,0.,0.));
#1389=DIRECTION('center_axis',(0.,1.,0.));
#1390=DIRECTION('ref_axis',(0.,0.,1.));
#1391=DIRECTION('center_axis',(2.368475785867E-16,0.,1.));
#1392=DIRECTION('ref_axis',(1.,0.,-2.368475785867E-16));
#1393=DIRECTION('',(1.,0.,-2.368475785867E-16));
#1394=DIRECTION('center_axis',(-2.368475785867E-16,0.,-1.));
#1395=DIRECTION('ref_axis',(-1.,0.,2.368475785867E-16));
#1396=DIRECTION('',(-1.,0.,2.368475785867E-16));
#1397=DIRECTION('center_axis',(0.,1.,0.));
#1398=DIRECTION('ref_axis',(0.,0.,1.));
#1399=CARTESIAN_POINT('',(0.,0.,0.));
#1400=CARTESIAN_POINT('Origin',(10.2799999999999,179.,-201.));
#1401=CARTESIAN_POINT('',(8.77999999999993,179.,-201.));
#1402=CARTESIAN_POINT('Origin',(10.2799999999999,179.,-201.));
#1403=CARTESIAN_POINT('',(8.77999999999993,176.,-201.));
#1404=CARTESIAN_POINT('',(8.77999999999993,179.,-201.));
#1405=CARTESIAN_POINT('Origin',(10.2799999999999,176.,-201.));
#1406=CARTESIAN_POINT('Origin',(-10.2800000000001,179.,-201.));
#1407=CARTESIAN_POINT('',(-11.7800000000001,179.,-201.));
#1408=CARTESIAN_POINT('Origin',(-10.2800000000001,179.,-201.));
#1409=CARTESIAN_POINT('',(-11.7800000000001,176.,-201.));
#1410=CARTESIAN_POINT('',(-11.7800000000001,179.,-201.));
#1411=CARTESIAN_POINT('Origin',(-10.2800000000001,176.,-201.));
#1412=CARTESIAN_POINT('Origin',(-15.0000000000001,179.,-205.));
#1413=CARTESIAN_POINT('',(-15.0000000000001,176.,-205.));
#1414=CARTESIAN_POINT('',(-15.0000000000001,179.,-205.));
#1415=CARTESIAN_POINT('',(-15.0000000000001,257.,-205.));
#1416=CARTESIAN_POINT('',(-15.0000000000001,176.,-192.));
#1417=CARTESIAN_POINT('',(-15.0000000000001,176.,-205.));
#1418=CARTESIAN_POINT('',(-15.0000000000001,179.,-192.));
#1419=CARTESIAN_POINT('',(-15.0000000000001,179.,-192.));
#1420=CARTESIAN_POINT('',(-15.0000000000001,179.,-205.));
#1421=CARTESIAN_POINT('Origin',(14.9999999999999,179.,-205.));
#1422=CARTESIAN_POINT('',(14.9999999999999,179.,-205.));
#1423=CARTESIAN_POINT('',(82.5,179.,-205.));
#1424=CARTESIAN_POINT('',(14.9999999999999,179.,-192.));
#1425=CARTESIAN_POINT('',(14.9999999999999,179.,-192.));
#1426=CARTESIAN_POINT('',(14.9999999999999,179.,-205.));
#1427=CARTESIAN_POINT('Origin',(14.9999999999999,176.,-205.));
#1428=CARTESIAN_POINT('',(14.9999999999999,176.,-205.));
#1429=CARTESIAN_POINT('',(14.9999999999999,255.5,-205.));
#1430=CARTESIAN_POINT('',(14.9999999999999,176.,-192.));
#1431=CARTESIAN_POINT('',(14.9999999999999,176.,-192.));
#1432=CARTESIAN_POINT('',(14.9999999999999,176.,-205.));
#1433=CARTESIAN_POINT('Origin',(-15.0000000000001,176.,-205.));
#1434=CARTESIAN_POINT('',(67.5,176.,-205.));
#1435=CARTESIAN_POINT('',(-15.0000000000001,176.,-192.));
#1436=CARTESIAN_POINT('Origin',(-6.88338275267597E-14,177.5,-192.));
#1437=CARTESIAN_POINT('Origin',(43.,20.,-19.0876598214755));
#1438=CARTESIAN_POINT('',(41.5,20.,-19.0876598214755));
#1439=CARTESIAN_POINT('Origin',(43.,20.,-19.0876598214755));
#1440=CARTESIAN_POINT('',(41.5,0.,-19.0876598214755));
#1441=CARTESIAN_POINT('',(41.5,20.,-19.0876598214755));
#1442=CARTESIAN_POINT('Origin',(43.,0.,-19.0876598214755));
#1443=CARTESIAN_POINT('Origin',(-43.,20.,-77.0876598214755));
#1444=CARTESIAN_POINT('',(-44.5,20.,-77.0876598214755));
#1445=CARTESIAN_POINT('Origin',(-43.,20.,-77.0876598214755));
#1446=CARTESIAN_POINT('',(-44.5,0.,-77.0876598214755));
#1447=CARTESIAN_POINT('',(-44.5,20.,-77.0876598214755));
#1448=CARTESIAN_POINT('Origin',(-43.,0.,-77.0876598214755));
#1449=CARTESIAN_POINT('Origin',(43.,20.,-77.0876598214755));
#1450=CARTESIAN_POINT('',(41.5,20.,-77.0876598214755));
#1451=CARTESIAN_POINT('Origin',(43.,20.,-77.0876598214755));
#1452=CARTESIAN_POINT('',(41.5,0.,-77.0876598214755));
#1453=CARTESIAN_POINT('',(41.5,20.,-77.0876598214755));
#1454=CARTESIAN_POINT('Origin',(43.,0.,-77.0876598214755));
#1455=CARTESIAN_POINT('Origin',(-43.,20.,-19.0876598214755));
#1456=CARTESIAN_POINT('',(-44.4999999999999,20.,-19.0876598214755));
#1457=CARTESIAN_POINT('Origin',(-43.,20.,-19.0876598214755));
#1458=CARTESIAN_POINT('',(-44.4999999999999,0.,-19.0876598214755));
#1459=CARTESIAN_POINT('',(-44.4999999999999,20.,-19.0876598214755));
#1460=CARTESIAN_POINT('Origin',(-43.,0.,-19.0876598214755));
#1461=CARTESIAN_POINT('Origin',(150.,20.,-205.));
#1462=CARTESIAN_POINT('',(150.,20.,-205.));
#1463=CARTESIAN_POINT('',(150.,20.,80.9123401785245));
#1464=CARTESIAN_POINT('',(150.,20.,9.99999999999996));
#1465=CARTESIAN_POINT('',(-150.,20.,-205.));
#1466=CARTESIAN_POINT('',(150.,20.,-205.));
#1467=CARTESIAN_POINT('',(-150.,20.,80.9123401785245));
#1468=CARTESIAN_POINT('',(-150.,20.,-215.));
#1469=CARTESIAN_POINT('',(150.,20.,80.9123401785245));
#1470=CARTESIAN_POINT('Origin',(150.,335.,-205.));
#1471=CARTESIAN_POINT('',(150.,335.,-205.));
#1472=CARTESIAN_POINT('',(150.,167.5,-205.));
#1473=CARTESIAN_POINT('',(-150.,335.,-205.));
#1474=CARTESIAN_POINT('',(150.,335.,-205.));
#1475=CARTESIAN_POINT('',(-150.,167.5,-205.));
#1476=CARTESIAN_POINT('Origin',(150.,335.,-100.952994616207));
#1477=CARTESIAN_POINT('',(150.,335.,-100.952994616207));
#1478=CARTESIAN_POINT('',(150.,335.,62.0235026918963));
#1479=CARTESIAN_POINT('',(-150.,335.,-100.952994616207));
#1480=CARTESIAN_POINT('',(150.,335.,-100.952994616207));
#1481=CARTESIAN_POINT('',(-150.,335.,-162.976497308104));
#1482=CARTESIAN_POINT('Origin',(-150.,0.,-225.));
#1483=CARTESIAN_POINT('',(-150.,355.,-112.5));
#1484=CARTESIAN_POINT('',(-150.,355.,-112.5));
#1485=CARTESIAN_POINT('',(-150.,355.,-225.));
#1486=CARTESIAN_POINT('',(-150.,355.,-225.));
#1487=CARTESIAN_POINT('',(-150.,0.,-225.));
#1488=CARTESIAN_POINT('',(-150.,0.,-225.));
#1489=CARTESIAN_POINT('',(-150.,0.,225.));
#1490=CARTESIAN_POINT('',(-150.,0.,-225.));
#1491=CARTESIAN_POINT('',(-150.,5.,225.));
#1492=CARTESIAN_POINT('',(-150.,0.,225.));
#1493=CARTESIAN_POINT('',(-150.,5.,89.5725942163689));
#1494=CARTESIAN_POINT('',(-150.,5.,-225.));
#1495=CARTESIAN_POINT('',(-150.,355.,-112.5));
#1496=CARTESIAN_POINT('Origin',(150.,5.,89.5725942163689));
#1497=CARTESIAN_POINT('',(150.,355.,-112.5));
#1498=CARTESIAN_POINT('',(150.,355.,-112.5));
#1499=CARTESIAN_POINT('',(-150.,355.,-112.5));
#1500=CARTESIAN_POINT('Origin',(150.,0.,225.));
#1501=CARTESIAN_POINT('',(150.,5.,89.5725942163689));
#1502=CARTESIAN_POINT('',(150.,355.,-112.5));
#1503=CARTESIAN_POINT('',(150.,5.,225.));
#1504=CARTESIAN_POINT('',(150.,5.,225.));
#1505=CARTESIAN_POINT('',(150.,0.,225.));
#1506=CARTESIAN_POINT('',(150.,0.,225.));
#1507=CARTESIAN_POINT('',(150.,0.,-225.));
#1508=CARTESIAN_POINT('',(150.,0.,225.));
#1509=CARTESIAN_POINT('',(150.,355.,-225.));
#1510=CARTESIAN_POINT('',(150.,0.,-225.));
#1511=CARTESIAN_POINT('',(150.,355.,-112.5));
#1512=CARTESIAN_POINT('Origin',(20.,355.,-132.5));
#1513=CARTESIAN_POINT('',(18.5,355.,-132.5));
#1514=CARTESIAN_POINT('Origin',(20.,355.,-132.5));
#1515=CARTESIAN_POINT('',(18.5,340.,-132.5));
#1516=CARTESIAN_POINT('',(18.5,355.,-132.5));
#1517=CARTESIAN_POINT('Origin',(20.,340.,-132.5));
#1518=CARTESIAN_POINT('Origin',(20.,340.,-132.5));
#1519=CARTESIAN_POINT('Origin',(28.,355.,-202.5));
#1520=CARTESIAN_POINT('',(26.5,355.,-202.5));
#1521=CARTESIAN_POINT('Origin',(28.,355.,-202.5));
#1522=CARTESIAN_POINT('',(26.5,340.,-202.5));
#1523=CARTESIAN_POINT('',(26.5,355.,-202.5));
#1524=CARTESIAN_POINT('Origin',(28.,340.,-202.5));
#1525=CARTESIAN_POINT('Origin',(28.,340.,-202.5));
#1526=CARTESIAN_POINT('Origin',(-20.,355.,-132.5));
#1527=CARTESIAN_POINT('',(-21.5,355.,-132.5));
#1528=CARTESIAN_POINT('Origin',(-20.,355.,-132.5));
#1529=CARTESIAN_POINT('',(-21.5,340.,-132.5));
#1530=CARTESIAN_POINT('',(-21.5,355.,-132.5));
#1531=CARTESIAN_POINT('Origin',(-20.,340.,-132.5));
#1532=CARTESIAN_POINT('Origin',(-20.,340.,-132.5));
#1533=CARTESIAN_POINT('Origin',(-28.,355.,-202.5));
#1534=CARTESIAN_POINT('',(-29.5,355.,-202.5));
#1535=CARTESIAN_POINT('Origin',(-28.,355.,-202.5));
#1536=CARTESIAN_POINT('',(-29.5,340.,-202.5));
#1537=CARTESIAN_POINT('',(-29.5,355.,-202.5));
#1538=CARTESIAN_POINT('Origin',(-28.,340.,-202.5));
#1539=CARTESIAN_POINT('Origin',(-28.,340.,-202.5));
#1540=CARTESIAN_POINT('Origin',(150.,5.,89.5725942163689));
#1541=CARTESIAN_POINT('',(75.,5.,89.5725942163689));
#1542=CARTESIAN_POINT('Origin',(0.,355.,-168.75));
#1543=CARTESIAN_POINT('',(150.,355.,-225.));
#1544=CARTESIAN_POINT('Origin',(1.77635683940025E-14,5.,0.));
#1545=CARTESIAN_POINT('',(-150.,5.,225.));
#1546=CARTESIAN_POINT('Origin',(-112.5,5.,-154.363));
#1547=CARTESIAN_POINT('',(-114.,-36.,-154.363));
#1548=CARTESIAN_POINT('Origin',(-112.5,-36.,-154.363));
#1549=CARTESIAN_POINT('',(-114.,0.,-154.363));
#1550=CARTESIAN_POINT('',(-114.,5.,-154.363));
#1551=CARTESIAN_POINT('Origin',(-112.5,0.,-154.363));
#1552=CARTESIAN_POINT('Origin',(-112.5,-36.,-154.363));
#1553=CARTESIAN_POINT('Origin',(-125.,5.,195.));
#1554=CARTESIAN_POINT('',(-126.5,-36.,195.));
#1555=CARTESIAN_POINT('Origin',(-125.,-36.,195.));
#1556=CARTESIAN_POINT('',(-126.5,0.,195.));
#1557=CARTESIAN_POINT('',(-126.5,5.,195.));
#1558=CARTESIAN_POINT('Origin',(-125.,0.,195.));
#1559=CARTESIAN_POINT('Origin',(-125.,-36.,195.));
#1560=CARTESIAN_POINT('Origin',(125.,5.,154.363));
#1561=CARTESIAN_POINT('',(123.5,-36.,154.363));
#1562=CARTESIAN_POINT('Origin',(125.,-36.,154.363));
#1563=CARTESIAN_POINT('',(123.5,0.,154.363));
#1564=CARTESIAN_POINT('',(123.5,5.,154.363));
#1565=CARTESIAN_POINT('Origin',(125.,0.,154.363));
#1566=CARTESIAN_POINT('Origin',(125.,-36.,154.363));
#1567=CARTESIAN_POINT('Origin',(125.,5.,-195.));
#1568=CARTESIAN_POINT('',(123.5,-36.,-195.));
#1569=CARTESIAN_POINT('Origin',(125.,-36.,-195.));
#1570=CARTESIAN_POINT('',(123.5,0.,-195.));
#1571=CARTESIAN_POINT('',(123.5,5.,-195.));
#1572=CARTESIAN_POINT('Origin',(125.,0.,-195.));
#1573=CARTESIAN_POINT('Origin',(125.,-36.,-195.));
#1574=CARTESIAN_POINT('Origin',(125.,5.,-154.363));
#1575=CARTESIAN_POINT('',(123.5,-36.,-154.363));
#1576=CARTESIAN_POINT('Origin',(125.,-36.,-154.363));
#1577=CARTESIAN_POINT('',(123.5,0.,-154.363));
#1578=CARTESIAN_POINT('',(123.5,5.,-154.363));
#1579=CARTESIAN_POINT('Origin',(125.,0.,-154.363));
#1580=CARTESIAN_POINT('Origin',(125.,-36.,-154.363));
#1581=CARTESIAN_POINT('Origin',(125.,5.,195.));
#1582=CARTESIAN_POINT('',(123.5,-36.,195.));
#1583=CARTESIAN_POINT('Origin',(125.,-36.,195.));
#1584=CARTESIAN_POINT('',(123.5,0.,195.));
#1585=CARTESIAN_POINT('',(123.5,5.,195.));
#1586=CARTESIAN_POINT('Origin',(125.,0.,195.));
#1587=CARTESIAN_POINT('Origin',(125.,-36.,195.));
#1588=CARTESIAN_POINT('Origin',(-112.5,5.,154.363));
#1589=CARTESIAN_POINT('',(-114.,-36.,154.363));
#1590=CARTESIAN_POINT('Origin',(-112.5,-36.,154.363));
#1591=CARTESIAN_POINT('',(-114.,0.,154.363));
#1592=CARTESIAN_POINT('',(-114.,5.,154.363));
#1593=CARTESIAN_POINT('Origin',(-112.5,0.,154.363));
#1594=CARTESIAN_POINT('Origin',(-112.5,-36.,154.363));
#1595=CARTESIAN_POINT('Origin',(-112.5,5.,-195.));
#1596=CARTESIAN_POINT('',(-114.,-36.,-195.));
#1597=CARTESIAN_POINT('Origin',(-112.5,-36.,-195.));
#1598=CARTESIAN_POINT('',(-114.,0.,-195.));
#1599=CARTESIAN_POINT('',(-114.,5.,-195.));
#1600=CARTESIAN_POINT('Origin',(-112.5,0.,-195.));
#1601=CARTESIAN_POINT('Origin',(-112.5,-36.,-195.));
#1602=CARTESIAN_POINT('Origin',(-125.,5.,-154.363));
#1603=CARTESIAN_POINT('',(-126.5,-36.,-154.363));
#1604=CARTESIAN_POINT('Origin',(-125.,-36.,-154.363));
#1605=CARTESIAN_POINT('',(-126.5,0.,-154.363));
#1606=CARTESIAN_POINT('',(-126.5,5.,-154.363));
#1607=CARTESIAN_POINT('Origin',(-125.,0.,-154.363));
#1608=CARTESIAN_POINT('Origin',(-125.,-36.,-154.363));
#1609=CARTESIAN_POINT('Origin',(-112.5,5.,195.));
#1610=CARTESIAN_POINT('',(-114.,-36.,195.));
#1611=CARTESIAN_POINT('Origin',(-112.5,-36.,195.));
#1612=CARTESIAN_POINT('',(-114.,0.,195.));
#1613=CARTESIAN_POINT('',(-114.,5.,195.));
#1614=CARTESIAN_POINT('Origin',(-112.5,0.,195.));
#1615=CARTESIAN_POINT('Origin',(-112.5,-36.,195.));
#1616=CARTESIAN_POINT('Origin',(112.5,5.,154.363));
#1617=CARTESIAN_POINT('',(111.,-36.,154.363));
#1618=CARTESIAN_POINT('Origin',(112.5,-36.,154.363));
#1619=CARTESIAN_POINT('',(111.,0.,154.363));
#1620=CARTESIAN_POINT('',(111.,5.,154.363));
#1621=CARTESIAN_POINT('Origin',(112.5,0.,154.363));
#1622=CARTESIAN_POINT('Origin',(112.5,-36.,154.363));
#1623=CARTESIAN_POINT('Origin',(112.5,5.,-195.));
#1624=CARTESIAN_POINT('',(111.,-36.,-195.));
#1625=CARTESIAN_POINT('Origin',(112.5,-36.,-195.));
#1626=CARTESIAN_POINT('',(111.,0.,-195.));
#1627=CARTESIAN_POINT('',(111.,5.,-195.));
#1628=CARTESIAN_POINT('Origin',(112.5,0.,-195.));
#1629=CARTESIAN_POINT('Origin',(112.5,-36.,-195.));
#1630=CARTESIAN_POINT('Origin',(112.5,5.,-154.363));
#1631=CARTESIAN_POINT('',(111.,-36.,-154.363));
#1632=CARTESIAN_POINT('Origin',(112.5,-36.,-154.363));
#1633=CARTESIAN_POINT('',(111.,0.,-154.363));
#1634=CARTESIAN_POINT('',(111.,5.,-154.363));
#1635=CARTESIAN_POINT('Origin',(112.5,0.,-154.363));
#1636=CARTESIAN_POINT('Origin',(112.5,-36.,-154.363));
#1637=CARTESIAN_POINT('Origin',(112.5,5.,195.));
#1638=CARTESIAN_POINT('',(111.,-36.,195.));
#1639=CARTESIAN_POINT('Origin',(112.5,-36.,195.));
#1640=CARTESIAN_POINT('',(111.,0.,195.));
#1641=CARTESIAN_POINT('',(111.,5.,195.));
#1642=CARTESIAN_POINT('Origin',(112.5,0.,195.));
#1643=CARTESIAN_POINT('Origin',(112.5,-36.,195.));
#1644=CARTESIAN_POINT('Origin',(-125.,5.,154.363));
#1645=CARTESIAN_POINT('',(-126.5,-36.,154.363));
#1646=CARTESIAN_POINT('Origin',(-125.,-36.,154.363));
#1647=CARTESIAN_POINT('',(-126.5,0.,154.363));
#1648=CARTESIAN_POINT('',(-126.5,5.,154.363));
#1649=CARTESIAN_POINT('Origin',(-125.,0.,154.363));
#1650=CARTESIAN_POINT('Origin',(-125.,-36.,154.363));
#1651=CARTESIAN_POINT('Origin',(-125.,5.,-195.));
#1652=CARTESIAN_POINT('',(-126.5,-36.,-195.));
#1653=CARTESIAN_POINT('Origin',(-125.,-36.,-195.));
#1654=CARTESIAN_POINT('',(-126.5,0.,-195.));
#1655=CARTESIAN_POINT('',(-126.5,5.,-195.));
#1656=CARTESIAN_POINT('Origin',(-125.,0.,-195.));
#1657=CARTESIAN_POINT('Origin',(-125.,-36.,-195.));
#1658=CARTESIAN_POINT('Origin',(-150.,0.,225.));
#1659=CARTESIAN_POINT('',(-150.,0.,225.));
#1660=CARTESIAN_POINT('Origin',(150.,0.,-225.));
#1661=CARTESIAN_POINT('',(150.,0.,-225.));
#1662=CARTESIAN_POINT('Origin',(1.77635683940025E-14,0.,0.));
#1663=UNCERTAINTY_MEASURE_WITH_UNIT(LENGTH_MEASURE(0.01),#1667,
'DISTANCE_ACCURACY_VALUE',
'Maximum model space distance between geometric entities at asserted c
onnectivities');
#1664=UNCERTAINTY_MEASURE_WITH_UNIT(LENGTH_MEASURE(0.01),#1667,
'DISTANCE_ACCURACY_VALUE',
'Maximum model space distance between geometric entities at asserted c
onnectivities');
#1665=(
GEOMETRIC_REPRESENTATION_CONTEXT(3)
GLOBAL_UNCERTAINTY_ASSIGNED_CONTEXT((#1663))
GLOBAL_UNIT_ASSIGNED_CONTEXT((#1667,#1669,#1670))
REPRESENTATION_CONTEXT('','3D')
);
#1666=(
GEOMETRIC_REPRESENTATION_CONTEXT(3)
GLOBAL_UNCERTAINTY_ASSIGNED_CONTEXT((#1664))
GLOBAL_UNIT_ASSIGNED_CONTEXT((#1667,#1669,#1670))
REPRESENTATION_CONTEXT('','3D')
);
#1667=(
LENGTH_UNIT()
NAMED_UNIT(*)
SI_UNIT(.MILLI.,.METRE.)
);
#1668=(
LENGTH_UNIT()
NAMED_UNIT(*)
SI_UNIT(.CENTI.,.METRE.)
);
#1669=(
NAMED_UNIT(*)
PLANE_ANGLE_UNIT()
SI_UNIT($,.RADIAN.)
);
#1670=(
NAMED_UNIT(*)
SI_UNIT($,.STERADIAN.)
SOLID_ANGLE_UNIT()
);
#1671=SHAPE_DEFINITION_REPRESENTATION(#1672,#1673);
#1672=PRODUCT_DEFINITION_SHAPE('',$,#1675);
#1673=SHAPE_REPRESENTATION('',(#983),#1665);
#1674=PRODUCT_DEFINITION_CONTEXT('part definition',#1679,'design');
#1675=PRODUCT_DEFINITION('Base','Base - Top',#1676,#1674);
#1676=PRODUCT_DEFINITION_FORMATION('',$,#1681);
#1677=PRODUCT_RELATED_PRODUCT_CATEGORY('Base - Top','Base - Top',(#1681));
#1678=APPLICATION_PROTOCOL_DEFINITION('international standard',
'automotive_design',2009,#1679);
#1679=APPLICATION_CONTEXT(
'Core Data for Automotive Mechanical Design Process');
#1680=PRODUCT_CONTEXT('part definition',#1679,'mechanical');
#1681=PRODUCT('Base','Base - Top',$,(#1680));
#1682=PRESENTATION_STYLE_ASSIGNMENT((#1683));
#1683=SURFACE_STYLE_USAGE(.BOTH.,#1686);
#1684=SURFACE_STYLE_RENDERING_WITH_PROPERTIES($,#1690,(#1685));
#1685=SURFACE_STYLE_TRANSPARENT(0.);
#1686=SURFACE_SIDE_STYLE('',(#1687,#1684));
#1687=SURFACE_STYLE_FILL_AREA(#1688);
#1688=FILL_AREA_STYLE('',(#1689));
#1689=FILL_AREA_STYLE_COLOUR('',#1690);
#1690=COLOUR_RGB('',0.749019607843137,0.749019607843137,0.749019607843137);
ENDSEC;
END-ISO-10303-21;
